<?xml version="1.0" encoding="utf-8"?>
<!-- Generator: Adobe Illustrator 16.0.0, SVG Export Plug-In . SVG Version: 6.00 Build 0)  -->
<!DOCTYPE svg PUBLIC "-//W3C//DTD SVG 1.1//EN" "http://www.w3.org/Graphics/SVG/1.1/DTD/svg11.dtd">
<svg version="1.1" id="Layer_1" xmlns="http://www.w3.org/2000/svg" xmlns:xlink="http://www.w3.org/1999/xlink" x="0px" y="0px"
	 width="245px" height="60px" viewBox="0 0 245 60" enable-background="new 0 0 245 60" xml:space="preserve">
<rect x="0.5" y="0.5" fill="#FFFFFF" stroke="#000000" stroke-miterlimit="10" width="244" height="59"/>
<rect x="1" y="40" width="243" height="20"/>
<g>
	<rect x="81" y="48.5" fill="#FFFFFF" width="12" height="3"/>
	<rect x="101" y="48.5" fill="#FFFFFF" width="12" height="3"/>
	<rect x="121" y="48.5" fill="#FFFFFF" width="12" height="3"/>
	<rect x="141" y="48.5" fill="#FFFFFF" width="12" height="3"/>
</g>
<g>
	<g>
		<path stroke="#000000" stroke-width="0.25" stroke-miterlimit="10" d="M12,21.295h1.641v7.057h2.391v1.562H12V21.295z"/>
		<path stroke="#000000" stroke-width="0.25" stroke-miterlimit="10" d="M21.349,21.078c1.22,0,2.268,0.439,3.146,1.322
			c0.877,0.885,1.316,1.959,1.316,3.229c0,1.261-0.434,2.322-1.299,3.193c-0.866,0.868-1.916,1.307-3.151,1.307
			c-1.294,0-2.369-0.444-3.225-1.342c-0.856-0.896-1.284-1.957-1.284-3.188c0-0.824,0.199-1.582,0.598-2.271
			c0.398-0.689,0.947-1.239,1.645-1.645C19.793,21.277,20.543,21.078,21.349,21.078z M21.331,22.686
			c-0.798,0-1.468,0.275-2.012,0.832c-0.544,0.556-0.815,1.26-0.815,2.113c0,0.953,0.342,1.707,1.026,2.264
			c0.532,0.435,1.142,0.648,1.83,0.648c0.778,0,1.441-0.279,1.988-0.844c0.547-0.563,0.821-1.258,0.821-2.08
			c0-0.82-0.276-1.516-0.827-2.083C22.791,22.968,22.121,22.686,21.331,22.686z"/>
		<path stroke="#000000" stroke-width="0.25" stroke-miterlimit="10" d="M35.314,22.701l-1.155,1.143
			c-0.731-0.771-1.583-1.158-2.558-1.158c-0.848,0-1.559,0.279-2.131,0.844c-0.573,0.562-0.859,1.246-0.859,2.052
			c0,0.832,0.297,1.537,0.892,2.114c0.595,0.578,1.327,0.867,2.2,0.867c0.566,0,1.045-0.119,1.434-0.356
			c0.389-0.238,0.703-0.61,0.941-1.119h-2.496v-1.541h4.336l0.012,0.363c0,0.754-0.195,1.469-0.586,2.146
			c-0.391,0.676-0.896,1.19-1.518,1.547c-0.622,0.355-1.35,0.532-2.186,0.532c-0.895,0-1.692-0.192-2.394-0.583
			c-0.702-0.389-1.256-0.941-1.664-1.66c-0.408-0.72-0.612-1.494-0.612-2.326c0-1.142,0.377-2.133,1.131-2.978
			c0.895-1.004,2.059-1.506,3.492-1.506c0.75,0,1.451,0.14,2.104,0.416C34.248,21.729,34.787,22.131,35.314,22.701z"/>
		<path stroke="#000000" stroke-width="0.25" stroke-miterlimit="10" d="M41.505,21.078c1.22,0,2.269,0.439,3.146,1.322
			c0.877,0.885,1.316,1.959,1.316,3.229c0,1.261-0.434,2.322-1.299,3.193c-0.865,0.868-1.916,1.307-3.151,1.307
			c-1.294,0-2.368-0.444-3.225-1.342s-1.284-1.957-1.284-3.188c0-0.824,0.199-1.582,0.598-2.271s0.947-1.239,1.645-1.645
			C39.948,21.28,40.699,21.078,41.505,21.078z M41.487,22.686c-0.798,0-1.468,0.275-2.012,0.832
			c-0.544,0.556-0.815,1.26-0.815,2.113c0,0.953,0.342,1.707,1.026,2.264c0.532,0.435,1.142,0.648,1.83,0.648
			c0.778,0,1.44-0.279,1.988-0.844s0.821-1.258,0.821-2.08c0-0.82-0.275-1.516-0.827-2.083
			C42.946,22.968,42.277,22.686,41.487,22.686z"/>
	</g>
	<g>
		<path stroke="#000000" stroke-width="0.25" stroke-miterlimit="10" d="M195.575,27.542l2.665,2.666l-0.719,0.729l-2.666-2.904
			c-0.373,0.3-0.785,0.533-1.232,0.707c-0.447,0.175-0.925,0.261-1.432,0.261c-0.604,0-1.17-0.112-1.696-0.345
			c-0.527-0.223-0.989-0.528-1.386-0.926c-0.396-0.396-0.707-0.854-0.938-1.387c-0.229-0.525-0.344-1.096-0.344-1.707
			c0-0.609,0.112-1.18,0.344-1.707c0.229-0.531,0.541-0.996,0.938-1.391c0.396-0.395,0.855-0.699,1.386-0.921
			c0.526-0.229,1.093-0.345,1.696-0.345c0.598,0,1.16,0.112,1.687,0.345c0.526,0.222,0.989,0.526,1.386,0.921
			s0.707,0.855,0.938,1.391c0.229,0.527,0.343,1.098,0.343,1.707c0,0.529-0.084,1.051-0.255,1.565
			C196.118,26.723,195.881,27.167,195.575,27.542z M192.191,28.032c0.459,0,0.896-0.093,1.312-0.271
			c0.409-0.174,0.771-0.413,1.077-0.719c0.306-0.306,0.553-0.666,0.732-1.082c0.174-0.408,0.262-0.853,0.262-1.321
			c0-0.471-0.088-0.916-0.262-1.332c-0.183-0.408-0.427-0.769-0.732-1.072c-0.309-0.305-0.668-0.549-1.077-0.729
			c-0.417-0.176-0.854-0.26-1.312-0.26c-0.465,0-0.905,0.084-1.321,0.26c-0.41,0.181-0.771,0.425-1.078,0.729
			c-0.308,0.307-0.55,0.664-0.724,1.072c-0.184,0.416-0.271,0.86-0.271,1.332c0,0.471,0.092,0.913,0.271,1.321
			c0.174,0.416,0.416,0.776,0.724,1.082c0.31,0.306,0.668,0.545,1.078,0.719C191.286,27.939,191.729,28.032,192.191,28.032z"/>
	</g>
	<g>
		<path d="M210.014,30.676l-0.102-0.048c-1.053-0.411-1.975-0.928-2.706-1.522c-0.737-0.586-1.33-1.217-1.761-1.877
			c-0.432-0.66-0.721-1.34-0.859-2.021c-0.132-0.684-0.143-1.334-0.031-1.938c0.082-0.416,0.213-0.795,0.391-1.129
			c0.186-0.334,0.41-0.625,0.669-0.865c0.261-0.241,0.565-0.43,0.903-0.559c0.33-0.127,0.688-0.191,1.062-0.191
			c0.426,0,0.868,0.086,1.316,0.257c0.414,0.159,0.832,0.389,1.24,0.686c0.407-0.288,0.82-0.514,1.229-0.67
			c0.442-0.166,0.882-0.251,1.305-0.251c0.376,0,0.733,0.064,1.063,0.193c0.332,0.128,0.634,0.312,0.896,0.55
			c0.261,0.233,0.485,0.521,0.665,0.851c0.186,0.334,0.32,0.709,0.402,1.116c0.109,0.604,0.1,1.253-0.032,1.927
			c-0.14,0.682-0.426,1.359-0.854,2.021c-0.428,0.655-1.019,1.29-1.756,1.883c-0.734,0.595-1.65,1.119-2.724,1.558l-0.104,0.037
			l-0.092,0.008L210.014,30.676z M207.58,21.6c-0.488,0-0.9,0.164-1.262,0.5c-0.361,0.34-0.601,0.799-0.707,1.364
			c-0.09,0.487-0.075,1.013,0.041,1.562c0.119,0.553,0.361,1.107,0.721,1.65c0.361,0.547,0.861,1.08,1.484,1.584
			c0.615,0.493,1.383,0.934,2.277,1.307c0.895-0.379,1.656-0.825,2.27-1.327c0.623-0.505,1.123-1.037,1.484-1.584
			c0.359-0.544,0.603-1.095,0.721-1.64c0.108-0.551,0.119-1.074,0.031-1.554c-0.115-0.558-0.354-1.012-0.713-1.347
			c-0.357-0.334-0.769-0.496-1.257-0.496c-0.337,0-0.692,0.079-1.06,0.234c-0.373,0.16-0.76,0.396-1.146,0.699
			c-0.097,0.078-0.209,0.118-0.334,0.118s-0.238-0.04-0.337-0.12c-0.39-0.312-0.776-0.552-1.151-0.714
			C208.273,21.68,207.917,21.6,207.58,21.6z"/>
		<path d="M215.551,23.285c0.107,0.587,0.098,1.21-0.031,1.869c-0.137,0.666-0.414,1.32-0.832,1.966
			c-0.42,0.646-0.994,1.261-1.726,1.848c-0.724,0.587-1.618,1.101-2.687,1.536c-0.021,0.016-0.045,0.023-0.069,0.027
			c-0.024,0.003-0.048,0.005-0.069,0.005c-0.021,0-0.045-0.002-0.068-0.005c-0.025-0.004-0.049-0.014-0.07-0.027
			c-1.074-0.423-1.973-0.928-2.696-1.515c-0.729-0.58-1.307-1.194-1.729-1.843c-0.422-0.647-0.701-1.306-0.838-1.972
			c-0.129-0.666-0.14-1.293-0.031-1.88c0.078-0.4,0.203-0.763,0.376-1.085c0.179-0.321,0.394-0.599,0.639-0.827
			c0.248-0.229,0.532-0.404,0.854-0.525c0.314-0.123,0.65-0.184,1.01-0.184c0.408,0,0.829,0.082,1.264,0.247
			c0.432,0.165,0.863,0.408,1.293,0.729c0.43-0.314,0.857-0.553,1.284-0.715c0.427-0.16,0.843-0.24,1.251-0.24
			c0.358,0,0.694,0.061,1.01,0.183c0.316,0.122,0.599,0.295,0.85,0.521s0.462,0.496,0.634,0.812
			C215.343,22.533,215.473,22.893,215.551,23.285z M210.137,29.73c0.938-0.395,1.727-0.854,2.363-1.375
			c0.639-0.517,1.143-1.056,1.516-1.617c0.371-0.562,0.618-1.127,0.74-1.691c0.114-0.572,0.125-1.109,0.032-1.611
			c-0.122-0.595-0.374-1.069-0.759-1.429c-0.383-0.358-0.836-0.537-1.357-0.537c-0.357,0-0.73,0.082-1.117,0.247
			s-0.779,0.404-1.182,0.721c-0.071,0.058-0.152,0.086-0.241,0.086c-0.09,0-0.171-0.028-0.241-0.086
			c-0.402-0.322-0.798-0.567-1.188-0.735c-0.39-0.169-0.765-0.253-1.122-0.253c-0.521,0-0.979,0.181-1.364,0.542
			c-0.387,0.362-0.638,0.844-0.752,1.444c-0.093,0.51-0.079,1.049,0.043,1.623c0.122,0.572,0.369,1.141,0.741,1.701
			c0.372,0.562,0.877,1.102,1.516,1.617C208.407,28.893,209.198,29.344,210.137,29.73z"/>
	</g>
	<g>
		<path d="M223.25,31.553v-9.724h2.18c0.021-0.263,0.082-0.511,0.18-0.74c0.119-0.274,0.291-0.526,0.515-0.751
			c0.224-0.224,0.476-0.395,0.745-0.509c0.271-0.113,0.566-0.171,0.882-0.171s0.61,0.058,0.881,0.171
			c0.271,0.114,0.522,0.285,0.746,0.509c0.224,0.225,0.396,0.477,0.515,0.75c0.098,0.23,0.158,0.479,0.181,0.741h2.179v9.724H223.25
			z M231.21,30.514v-7.645h-6.92v7.645H231.21z M229.025,21.829c-0.019-0.121-0.049-0.237-0.094-0.347
			c-0.062-0.15-0.158-0.289-0.285-0.41c-0.125-0.131-0.26-0.225-0.406-0.283c-0.153-0.062-0.313-0.091-0.49-0.091
			s-0.337,0.028-0.49,0.091c-0.146,0.059-0.281,0.152-0.402,0.277c-0.131,0.127-0.228,0.266-0.289,0.414
			c-0.045,0.109-0.075,0.228-0.094,0.349H229.025z"/>
		<path d="M229.921,21.986h2.171v9.408h-8.684v-9.408h2.171c0.007-0.301,0.065-0.58,0.175-0.836c0.11-0.256,0.271-0.49,0.48-0.701
			c0.211-0.21,0.443-0.368,0.695-0.475c0.252-0.105,0.525-0.158,0.819-0.158s0.567,0.053,0.819,0.158s0.484,0.265,0.695,0.475
			c0.211,0.211,0.37,0.445,0.48,0.701C229.855,21.406,229.914,21.688,229.921,21.986z M231.368,22.711h-7.236v7.96h7.236V22.711
			L231.368,22.711z M226.744,20.958c-0.145,0.136-0.251,0.29-0.322,0.464c-0.072,0.174-0.111,0.362-0.119,0.564h2.896
			c-0.007-0.202-0.048-0.392-0.119-0.564c-0.071-0.174-0.179-0.328-0.322-0.464c-0.135-0.144-0.288-0.248-0.457-0.315
			c-0.171-0.067-0.353-0.103-0.549-0.103s-0.378,0.034-0.549,0.103C227.032,20.71,226.88,20.814,226.744,20.958z"/>
	</g>
</g>
<rect x="1" y="1" fill="#A5A5A5" width="243" height="10.5"/>
<text transform="matrix(1 0 0 1 207.915 8.3174)" fill="#707070" font-family="'cleversoft'" font-size="4.9805">쉃  쉃  쉃</text>
</svg>
