<?xml version="1.0" encoding="utf-8"?>
<!-- Generator: Adobe Illustrator 16.0.0, SVG Export Plug-In . SVG Version: 6.00 Build 0)  -->
<!DOCTYPE svg PUBLIC "-//W3C//DTD SVG 1.1//EN" "http://www.w3.org/Graphics/SVG/1.1/DTD/svg11.dtd">
<svg version="1.1" id="Layer_1" xmlns="http://www.w3.org/2000/svg" xmlns:xlink="http://www.w3.org/1999/xlink" x="0px" y="0px"
	 width="245px" height="40px" viewBox="0 0 245 40" enable-background="new 0 0 245 40" xml:space="preserve">
<rect x="0.5" y="0.5" fill="#FFFFFF" stroke="#000000" stroke-miterlimit="10" width="244" height="39"/>
<g>
	<path stroke="#000000" stroke-width="0.25" stroke-miterlimit="10" d="M105.017,16.189h1.641v7.056h2.391v1.563h-4.032V16.189z"/>
	<path stroke="#000000" stroke-width="0.25" stroke-miterlimit="10" d="M114.366,15.973c1.22,0,2.268,0.44,3.146,1.323
		c0.877,0.884,1.316,1.959,1.316,3.229c0,1.26-0.434,2.322-1.299,3.192c-0.866,0.869-1.916,1.308-3.151,1.308
		c-1.294,0-2.369-0.445-3.225-1.342s-1.284-1.957-1.284-3.188c0-0.824,0.199-1.582,0.598-2.272c0.398-0.69,0.947-1.239,1.645-1.644
		C112.81,16.173,113.56,15.973,114.366,15.973z M114.348,17.579c-0.798,0-1.468,0.276-2.012,0.832
		c-0.544,0.557-0.815,1.26-0.815,2.114c0,0.953,0.342,1.707,1.026,2.263c0.532,0.437,1.142,0.649,1.83,0.649
		c0.778,0,1.441-0.28,1.988-0.845c0.547-0.562,0.821-1.257,0.821-2.079c0-0.821-0.276-1.516-0.827-2.083
		C115.808,17.862,115.138,17.579,114.348,17.579z"/>
	<path stroke="#000000" stroke-width="0.25" stroke-miterlimit="10" d="M128.33,17.596l-1.154,1.143
		c-0.73-0.771-1.584-1.159-2.559-1.159c-0.848,0-1.559,0.28-2.13,0.844c-0.573,0.562-0.859,1.246-0.859,2.053
		c0,0.832,0.297,1.537,0.893,2.113c0.595,0.578,1.327,0.867,2.2,0.867c0.565,0,1.045-0.119,1.436-0.355
		c0.389-0.237,0.701-0.608,0.939-1.119H124.6V20.44h4.336l0.014,0.363c0,0.754-0.195,1.469-0.586,2.146
		c-0.393,0.676-0.896,1.189-1.521,1.547c-0.62,0.354-1.35,0.531-2.186,0.531c-0.896,0-1.691-0.191-2.394-0.584
		c-0.701-0.389-1.256-0.939-1.664-1.658c-0.408-0.721-0.611-1.494-0.611-2.326c0-1.143,0.377-2.133,1.131-2.979
		c0.895-1.004,2.059-1.506,3.492-1.506c0.75,0,1.451,0.141,2.104,0.416C127.264,16.624,127.803,17.025,128.33,17.596z"/>
	<path stroke="#000000" stroke-width="0.25" stroke-miterlimit="10" d="M134.521,15.973c1.221,0,2.27,0.44,3.146,1.323
		c0.877,0.884,1.313,1.959,1.313,3.229c0,1.26-0.434,2.322-1.299,3.192c-0.863,0.869-1.916,1.308-3.149,1.308
		c-1.294,0-2.367-0.445-3.226-1.342c-0.857-0.897-1.285-1.957-1.285-3.188c0-0.824,0.199-1.582,0.601-2.272
		c0.397-0.69,0.946-1.239,1.646-1.644C132.965,16.174,133.715,15.973,134.521,15.973z M134.504,17.579
		c-0.799,0-1.469,0.276-2.012,0.832c-0.545,0.557-0.816,1.26-0.816,2.114c0,0.953,0.342,1.707,1.027,2.263
		c0.531,0.437,1.141,0.649,1.83,0.649c0.777,0,1.439-0.28,1.986-0.845c0.549-0.563,0.821-1.257,0.821-2.079
		c0-0.821-0.274-1.516-0.827-2.083C135.963,17.862,135.293,17.579,134.504,17.579z"/>
</g>
<g>
	<path stroke="#000000" stroke-width="0.25" stroke-miterlimit="10" d="M39.25,22.438l2.665,2.666l-0.719,0.729L38.53,22.93
		c-0.373,0.301-0.785,0.533-1.232,0.707c-0.447,0.174-0.925,0.262-1.432,0.262c-0.604,0-1.17-0.113-1.696-0.346
		c-0.527-0.223-0.989-0.527-1.386-0.926c-0.396-0.396-0.707-0.854-0.938-1.387c-0.229-0.525-0.344-1.096-0.344-1.707
		c0-0.609,0.112-1.18,0.344-1.707c0.229-0.531,0.541-0.996,0.938-1.391c0.396-0.395,0.855-0.699,1.386-0.922
		c0.526-0.229,1.093-0.344,1.696-0.344c0.598,0,1.16,0.112,1.687,0.344c0.526,0.223,0.989,0.527,1.386,0.922
		s0.707,0.855,0.938,1.391c0.229,0.527,0.343,1.098,0.343,1.707c0,0.529-0.084,1.05-0.255,1.564
		C39.793,21.617,39.556,22.062,39.25,22.438z M35.866,22.927c0.459,0,0.896-0.092,1.312-0.271c0.409-0.174,0.771-0.414,1.077-0.719
		c0.306-0.307,0.553-0.666,0.732-1.082c0.174-0.408,0.262-0.854,0.262-1.322c0-0.469-0.088-0.916-0.262-1.332
		c-0.183-0.407-0.427-0.769-0.732-1.071c-0.309-0.305-0.668-0.55-1.077-0.729c-0.417-0.177-0.854-0.261-1.312-0.261
		c-0.465,0-0.905,0.084-1.321,0.261c-0.41,0.18-0.771,0.424-1.078,0.729c-0.308,0.307-0.55,0.664-0.724,1.071
		c-0.184,0.416-0.271,0.861-0.271,1.332c0,0.472,0.092,0.914,0.271,1.322c0.174,0.416,0.416,0.775,0.724,1.082
		c0.31,0.305,0.668,0.545,1.078,0.719C34.961,22.837,35.403,22.927,35.866,22.927z"/>
</g>
<g>
	<path d="M212.988,25.568l-0.102-0.049c-1.054-0.41-1.976-0.929-2.707-1.521c-0.736-0.586-1.33-1.218-1.761-1.877
		c-0.433-0.66-0.721-1.341-0.858-2.021c-0.133-0.684-0.144-1.334-0.031-1.938c0.082-0.416,0.213-0.795,0.391-1.128
		c0.186-0.334,0.41-0.625,0.669-0.865c0.261-0.242,0.565-0.43,0.903-0.559c0.33-0.127,0.688-0.191,1.062-0.191
		c0.426,0,0.867,0.086,1.315,0.256c0.414,0.16,0.832,0.39,1.239,0.687c0.408-0.289,0.82-0.515,1.229-0.67
		c0.442-0.166,0.882-0.251,1.306-0.251c0.375,0,0.732,0.064,1.062,0.193c0.332,0.127,0.634,0.312,0.896,0.549
		c0.261,0.234,0.484,0.521,0.664,0.852c0.187,0.333,0.32,0.709,0.402,1.116c0.109,0.604,0.1,1.253-0.031,1.927
		c-0.141,0.682-0.427,1.359-0.854,2.02c-0.429,0.656-1.019,1.291-1.757,1.885c-0.733,0.595-1.649,1.117-2.723,1.558l-0.104,0.037
		l-0.093,0.008L212.988,25.568z M210.555,16.491c-0.488,0-0.9,0.164-1.262,0.501c-0.361,0.34-0.602,0.799-0.707,1.364
		c-0.09,0.487-0.074,1.013,0.041,1.562c0.119,0.553,0.361,1.107,0.721,1.65c0.361,0.547,0.861,1.08,1.484,1.584
		c0.615,0.492,1.383,0.934,2.277,1.307c0.895-0.379,1.656-0.826,2.27-1.328c0.623-0.504,1.123-1.037,1.484-1.584
		c0.359-0.543,0.603-1.095,0.721-1.64c0.107-0.55,0.119-1.073,0.031-1.553c-0.115-0.558-0.354-1.013-0.713-1.347
		c-0.357-0.334-0.77-0.496-1.258-0.496c-0.336,0-0.691,0.078-1.06,0.233c-0.373,0.16-0.76,0.396-1.146,0.7
		c-0.098,0.078-0.209,0.118-0.334,0.118s-0.238-0.04-0.338-0.12c-0.39-0.312-0.775-0.553-1.15-0.714
		C211.248,16.571,210.893,16.491,210.555,16.491z"/>
	<path d="M218.525,18.178c0.106,0.586,0.098,1.209-0.031,1.869c-0.137,0.666-0.414,1.32-0.832,1.965
		c-0.42,0.646-0.994,1.262-1.727,1.85c-0.724,0.587-1.617,1.101-2.687,1.535c-0.021,0.016-0.045,0.023-0.069,0.027
		c-0.023,0.002-0.048,0.004-0.068,0.004c-0.021,0-0.045-0.002-0.068-0.004c-0.025-0.004-0.049-0.014-0.07-0.027
		c-1.074-0.424-1.973-0.928-2.695-1.516c-0.729-0.58-1.307-1.193-1.729-1.843c-0.422-0.647-0.7-1.306-0.838-1.971
		c-0.129-0.666-0.14-1.293-0.03-1.88c0.077-0.401,0.202-0.764,0.375-1.085c0.18-0.322,0.395-0.599,0.639-0.827
		c0.248-0.229,0.533-0.404,0.854-0.525c0.313-0.123,0.65-0.184,1.011-0.184c0.407,0,0.828,0.082,1.264,0.247
		c0.432,0.165,0.863,0.407,1.293,0.729c0.43-0.314,0.857-0.553,1.283-0.715c0.428-0.16,0.844-0.24,1.252-0.24
		c0.357,0,0.693,0.061,1.01,0.183s0.599,0.295,0.85,0.521c0.252,0.225,0.463,0.495,0.635,0.812
		C218.316,17.426,218.447,17.784,218.525,18.178z M213.111,24.623c0.938-0.395,1.727-0.854,2.363-1.375
		c0.639-0.516,1.143-1.055,1.516-1.617c0.371-0.562,0.617-1.125,0.74-1.69c0.113-0.573,0.125-1.11,0.031-1.611
		c-0.121-0.595-0.373-1.069-0.759-1.429c-0.383-0.357-0.836-0.537-1.356-0.537c-0.357,0-0.73,0.082-1.117,0.247
		s-0.779,0.403-1.182,0.72c-0.072,0.059-0.152,0.086-0.242,0.086s-0.17-0.027-0.24-0.086c-0.402-0.322-0.799-0.566-1.188-0.734
		c-0.39-0.17-0.765-0.254-1.122-0.254c-0.521,0-0.979,0.182-1.363,0.543c-0.387,0.361-0.639,0.844-0.752,1.444
		c-0.094,0.509-0.08,1.05,0.043,1.622c0.121,0.573,0.369,1.141,0.74,1.702c0.373,0.561,0.877,1.103,1.517,1.617
		C211.382,23.785,212.173,24.236,213.111,24.623z"/>
</g>
<g>
	<path d="M226.449,25.15v-9.238h2.07c0.021-0.249,0.078-0.485,0.17-0.703c0.113-0.262,0.276-0.501,0.488-0.714
		c0.213-0.212,0.451-0.375,0.709-0.483c0.258-0.106,0.538-0.162,0.838-0.162c0.299,0,0.58,0.056,0.836,0.162
		c0.26,0.108,0.496,0.271,0.709,0.483c0.213,0.213,0.377,0.452,0.488,0.713c0.094,0.219,0.149,0.455,0.172,0.704H235v9.238H226.449z
		 M234.012,24.162V16.9h-6.574v7.262H234.012z M231.938,15.912c-0.018-0.115-0.047-0.227-0.09-0.329
		c-0.059-0.144-0.147-0.274-0.271-0.39c-0.119-0.125-0.246-0.215-0.388-0.271c-0.146-0.059-0.297-0.086-0.465-0.086
		s-0.32,0.027-0.467,0.086c-0.141,0.056-0.268,0.146-0.383,0.265c-0.125,0.121-0.217,0.252-0.273,0.395
		c-0.043,0.104-0.072,0.215-0.09,0.33H231.938z"/>
	<path d="M232.787,16.062h2.062V25h-8.25v-8.938h2.062c0.008-0.287,0.062-0.553,0.166-0.795c0.104-0.244,0.258-0.467,0.457-0.666
		c0.2-0.201,0.422-0.352,0.659-0.451c0.24-0.102,0.5-0.15,0.779-0.15s0.539,0.05,0.779,0.15c0.238,0.101,0.459,0.25,0.66,0.451
		c0.199,0.199,0.354,0.422,0.457,0.666C232.725,15.511,232.781,15.775,232.787,16.062z M234.162,16.75h-6.875v7.562h6.875V16.75z
		 M229.77,15.085c-0.137,0.129-0.237,0.274-0.307,0.44c-0.068,0.164-0.105,0.344-0.113,0.537h2.75
		c-0.007-0.193-0.045-0.373-0.113-0.537c-0.065-0.166-0.17-0.312-0.305-0.44c-0.13-0.136-0.274-0.235-0.436-0.301
		c-0.162-0.064-0.336-0.097-0.521-0.097c-0.185,0-0.358,0.031-0.521,0.097C230.043,14.85,229.896,14.949,229.77,15.085z"/>
</g>
<g>
	<path d="M21.988,19.851v1.658H10v-1.658H21.988z M21.988,23.512v1.668H10v-1.668H21.988z M22,16.18v1.668H10.012V16.18H22z"/>
</g>
</svg>
