<?xml version="1.0" encoding="utf-8"?>
<!-- Generator: Adobe Illustrator 16.0.0, SVG Export Plug-In . SVG Version: 6.00 Build 0)  -->
<!DOCTYPE svg PUBLIC "-//W3C//DTD SVG 1.1//EN" "http://www.w3.org/Graphics/SVG/1.1/DTD/svg11.dtd">
<svg version="1.1" id="Layer_1" xmlns="http://www.w3.org/2000/svg" xmlns:xlink="http://www.w3.org/1999/xlink" x="0px" y="0px"
	 width="245px" height="60px" viewBox="0 0 245 60" enable-background="new 0 0 245 60" xml:space="preserve">
<rect x="-0.5" y="0.5" fill="#FFFFFF" stroke="#000000" stroke-miterlimit="10" width="245" height="59"/>
<rect y="39.916" fill="#D7D7D7" width="244" height="1"/>
<g>
	<path stroke="#000000" stroke-width="0.25" stroke-miterlimit="10" d="M105.017,21.152h1.641v7.056h2.391v1.563h-4.032V21.152z"/>
	<path stroke="#000000" stroke-width="0.25" stroke-miterlimit="10" d="M114.366,20.936c1.22,0,2.268,0.44,3.146,1.323
		c0.877,0.884,1.316,1.959,1.316,3.229c0,1.26-0.434,2.322-1.299,3.193c-0.866,0.869-1.916,1.307-3.151,1.307
		c-1.294,0-2.369-0.445-3.225-1.342c-0.856-0.896-1.284-1.957-1.284-3.188c0-0.824,0.199-1.582,0.598-2.272
		c0.398-0.69,0.947-1.239,1.645-1.644C112.81,21.136,113.56,20.936,114.366,20.936z M114.348,22.542
		c-0.798,0-1.468,0.276-2.012,0.832s-0.815,1.26-0.815,2.114c0,0.953,0.342,1.707,1.026,2.263c0.532,0.435,1.142,0.649,1.83,0.649
		c0.778,0,1.441-0.28,1.988-0.844c0.547-0.563,0.821-1.257,0.821-2.08c0-0.82-0.276-1.515-0.827-2.083
		C115.808,22.825,115.138,22.542,114.348,22.542z"/>
	<path stroke="#000000" stroke-width="0.25" stroke-miterlimit="10" d="M128.33,22.559l-1.154,1.143
		c-0.732-0.771-1.584-1.159-2.559-1.159c-0.848,0-1.559,0.28-2.13,0.844c-0.573,0.562-0.859,1.246-0.859,2.052
		c0,0.832,0.297,1.537,0.892,2.114c0.596,0.578,1.328,0.867,2.199,0.867c0.566,0,1.045-0.119,1.434-0.356
		c0.39-0.238,0.703-0.61,0.941-1.119h-2.496v-1.541h4.336l0.012,0.363c0,0.754-0.194,1.469-0.586,2.146
		c-0.391,0.676-0.895,1.19-1.518,1.547c-0.621,0.355-1.35,0.532-2.186,0.532c-0.895,0-1.691-0.192-2.394-0.583
		c-0.702-0.389-1.256-0.941-1.664-1.66c-0.408-0.72-0.612-1.494-0.612-2.326c0-1.142,0.377-2.133,1.131-2.978
		c0.895-1.004,2.059-1.506,3.492-1.506c0.75,0,1.451,0.14,2.104,0.416C127.264,21.587,127.803,21.988,128.33,22.559z"/>
	<path stroke="#000000" stroke-width="0.25" stroke-miterlimit="10" d="M134.521,20.936c1.219,0,2.268,0.44,3.145,1.323
		c0.877,0.884,1.316,1.959,1.316,3.229c0,1.26-0.435,2.322-1.299,3.193c-0.865,0.869-1.916,1.307-3.15,1.307
		c-1.295,0-2.369-0.445-3.225-1.342c-0.857-0.896-1.285-1.957-1.285-3.188c0-0.824,0.199-1.582,0.598-2.272
		c0.4-0.69,0.947-1.239,1.646-1.644C132.965,21.138,133.715,20.936,134.521,20.936z M134.502,22.542
		c-0.797,0-1.467,0.276-2.012,0.832c-0.543,0.556-0.814,1.26-0.814,2.114c0,0.953,0.342,1.707,1.025,2.263
		c0.533,0.435,1.143,0.649,1.83,0.649c0.779,0,1.441-0.28,1.988-0.844c0.549-0.564,0.821-1.257,0.821-2.08
		c0-0.82-0.274-1.515-0.827-2.083C135.96,22.825,135.293,22.542,134.502,22.542z"/>
</g>
<g>
	<rect x="81" y="48.5" width="12" height="3"/>
	<rect x="101" y="48.5" width="12" height="3"/>
	<rect x="121" y="48.5" width="12" height="3"/>
	<rect x="141" y="48.5" width="12" height="3"/>
</g>
<g>
	<path d="M210.014,30.533l-0.102-0.048c-1.053-0.411-1.975-0.928-2.706-1.522c-0.737-0.586-1.33-1.218-1.761-1.877
		c-0.432-0.66-0.721-1.341-0.859-2.022c-0.132-0.684-0.143-1.334-0.031-1.938c0.082-0.416,0.213-0.795,0.391-1.128
		c0.186-0.334,0.41-0.625,0.669-0.866c0.261-0.241,0.565-0.429,0.903-0.558c0.33-0.127,0.688-0.192,1.062-0.192
		c0.426,0,0.868,0.087,1.316,0.257c0.414,0.159,0.832,0.389,1.24,0.686c0.407-0.289,0.82-0.514,1.229-0.67
		c0.442-0.166,0.882-0.251,1.305-0.251c0.376,0,0.733,0.065,1.063,0.193c0.332,0.128,0.634,0.313,0.896,0.55
		c0.261,0.233,0.485,0.52,0.665,0.851c0.186,0.333,0.32,0.709,0.402,1.116c0.109,0.604,0.1,1.253-0.032,1.927
		c-0.14,0.681-0.426,1.359-0.854,2.02c-0.428,0.656-1.019,1.29-1.756,1.883c-0.734,0.595-1.65,1.119-2.724,1.558l-0.104,0.037
		l-0.092,0.007L210.014,30.533z M207.58,21.456c-0.488,0-0.9,0.164-1.262,0.501c-0.361,0.339-0.601,0.798-0.707,1.364
		c-0.09,0.487-0.075,1.013,0.041,1.562c0.119,0.552,0.361,1.107,0.721,1.65c0.361,0.547,0.861,1.08,1.484,1.584
		c0.615,0.493,1.383,0.933,2.277,1.307c0.895-0.379,1.656-0.826,2.27-1.328c0.623-0.504,1.123-1.037,1.484-1.584
		c0.359-0.543,0.603-1.095,0.721-1.64c0.108-0.55,0.119-1.073,0.031-1.553c-0.115-0.558-0.354-1.012-0.713-1.347
		c-0.357-0.334-0.769-0.496-1.257-0.496c-0.337,0-0.692,0.079-1.06,0.234c-0.373,0.16-0.76,0.396-1.146,0.7
		c-0.097,0.078-0.209,0.118-0.334,0.118s-0.238-0.04-0.337-0.12c-0.39-0.312-0.776-0.552-1.151-0.714
		C208.273,21.536,207.917,21.456,207.58,21.456z"/>
	<path d="M215.551,23.143c0.107,0.587,0.098,1.21-0.031,1.869c-0.137,0.666-0.414,1.321-0.832,1.966
		c-0.42,0.645-0.994,1.261-1.726,1.848c-0.724,0.587-1.618,1.1-2.687,1.536c-0.021,0.015-0.045,0.023-0.069,0.027
		c-0.024,0.003-0.048,0.005-0.069,0.005c-0.021,0-0.045-0.002-0.068-0.005c-0.025-0.004-0.049-0.013-0.07-0.027
		c-1.074-0.423-1.973-0.928-2.696-1.515c-0.729-0.58-1.307-1.194-1.729-1.843c-0.422-0.647-0.701-1.305-0.838-1.971
		c-0.129-0.666-0.14-1.293-0.031-1.88c0.078-0.401,0.203-0.763,0.376-1.085c0.179-0.322,0.394-0.598,0.639-0.827
		c0.248-0.229,0.532-0.404,0.854-0.526c0.314-0.122,0.65-0.183,1.01-0.183c0.408,0,0.829,0.082,1.264,0.247
		c0.432,0.165,0.863,0.408,1.293,0.73c0.43-0.315,0.857-0.553,1.284-0.715c0.427-0.16,0.843-0.241,1.251-0.241
		c0.358,0,0.694,0.062,1.01,0.183c0.316,0.122,0.599,0.295,0.85,0.521c0.251,0.225,0.462,0.495,0.634,0.811
		C215.343,22.391,215.473,22.749,215.551,23.143z M210.137,29.588c0.938-0.394,1.727-0.853,2.363-1.375
		c0.639-0.516,1.143-1.055,1.516-1.617c0.371-0.562,0.618-1.126,0.74-1.691c0.114-0.573,0.125-1.11,0.032-1.611
		c-0.122-0.595-0.374-1.07-0.759-1.429c-0.383-0.358-0.836-0.537-1.357-0.537c-0.357,0-0.73,0.082-1.117,0.247
		s-0.779,0.404-1.182,0.72c-0.071,0.058-0.152,0.086-0.241,0.086c-0.09,0-0.171-0.028-0.241-0.086
		c-0.402-0.322-0.798-0.567-1.188-0.735c-0.39-0.169-0.765-0.253-1.122-0.253c-0.521,0-0.979,0.181-1.364,0.542
		c-0.387,0.362-0.638,0.844-0.752,1.445c-0.093,0.509-0.079,1.049,0.043,1.622s0.369,1.141,0.741,1.702
		c0.372,0.562,0.877,1.102,1.516,1.617C208.407,28.75,209.198,29.201,210.137,29.588z"/>
</g>
<g>
	<path d="M223.25,30.41v-9.724h2.18c0.021-0.262,0.082-0.511,0.18-0.74c0.119-0.275,0.291-0.527,0.515-0.751
		c0.224-0.224,0.476-0.395,0.745-0.509c0.271-0.113,0.566-0.171,0.882-0.171s0.61,0.058,0.881,0.171
		c0.271,0.114,0.522,0.285,0.746,0.509c0.224,0.224,0.396,0.476,0.515,0.75c0.098,0.23,0.158,0.479,0.181,0.741h2.179v9.724H223.25z
		 M231.21,29.37v-7.644h-6.92v7.644H231.21z M229.025,20.687c-0.019-0.121-0.049-0.237-0.094-0.347
		c-0.062-0.15-0.158-0.288-0.285-0.41c-0.125-0.131-0.26-0.225-0.406-0.283c-0.153-0.062-0.313-0.091-0.49-0.091
		s-0.337,0.029-0.49,0.091c-0.146,0.059-0.281,0.152-0.402,0.278c-0.131,0.127-0.228,0.265-0.289,0.414
		c-0.045,0.109-0.075,0.227-0.094,0.348H229.025z"/>
	<path d="M229.921,20.845h2.171v9.407h-8.684v-9.407h2.171c0.007-0.301,0.065-0.581,0.175-0.837c0.11-0.256,0.271-0.49,0.48-0.701
		c0.211-0.21,0.443-0.368,0.695-0.475c0.252-0.105,0.525-0.158,0.819-0.158s0.567,0.053,0.819,0.158
		c0.252,0.106,0.484,0.265,0.695,0.475c0.211,0.211,0.37,0.445,0.48,0.701C229.855,20.264,229.914,20.544,229.921,20.845z
		 M231.368,21.568h-7.236v7.96h7.236V21.568L231.368,21.568z M226.744,19.815c-0.145,0.136-0.251,0.29-0.322,0.464
		c-0.072,0.174-0.111,0.362-0.119,0.565h2.896c-0.007-0.203-0.048-0.392-0.119-0.565c-0.071-0.174-0.179-0.328-0.322-0.464
		c-0.135-0.143-0.288-0.248-0.457-0.316c-0.171-0.067-0.353-0.102-0.549-0.102s-0.378,0.034-0.549,0.102
		C227.032,19.567,226.88,19.673,226.744,19.815z"/>
</g>
<rect x="10" y="19.463" fill="#FFFFFF" stroke="#000000" stroke-miterlimit="10" width="60" height="12"/>
<g>
	<path stroke="#000000" stroke-width="0.25" stroke-miterlimit="10" d="M65.12,26.553l1.536,1.5l-0.414,0.41l-1.537-1.634
		c-0.215,0.169-0.453,0.3-0.71,0.398c-0.258,0.099-0.533,0.146-0.825,0.146c-0.349,0-0.675-0.064-0.979-0.194
		c-0.303-0.125-0.569-0.297-0.798-0.521c-0.229-0.223-0.408-0.481-0.54-0.78c-0.131-0.296-0.198-0.617-0.198-0.96
		s0.065-0.664,0.198-0.961c0.131-0.299,0.312-0.561,0.54-0.782c0.228-0.221,0.493-0.394,0.798-0.519
		c0.304-0.129,0.631-0.193,0.979-0.193c0.344,0,0.668,0.063,0.972,0.193c0.304,0.125,0.569,0.297,0.798,0.519
		c0.229,0.222,0.408,0.481,0.542,0.782c0.132,0.297,0.197,0.617,0.197,0.961c0,0.298-0.048,0.591-0.146,0.881
		C65.434,26.091,65.297,26.342,65.12,26.553z M63.171,26.829c0.264,0,0.516-0.051,0.756-0.153c0.236-0.098,0.443-0.233,0.62-0.404
		c0.177-0.172,0.319-0.375,0.422-0.609c0.101-0.229,0.151-0.479,0.151-0.744s-0.051-0.516-0.151-0.75
		c-0.104-0.229-0.245-0.432-0.422-0.604c-0.178-0.17-0.384-0.309-0.62-0.41c-0.241-0.099-0.493-0.146-0.756-0.146
		c-0.268,0-0.522,0.048-0.762,0.146c-0.236,0.101-0.444,0.239-0.621,0.41c-0.178,0.173-0.317,0.374-0.417,0.604
		c-0.105,0.234-0.157,0.485-0.157,0.75s0.053,0.514,0.157,0.744c0.1,0.234,0.239,0.438,0.417,0.609
		c0.178,0.171,0.385,0.307,0.621,0.404C62.648,26.777,62.904,26.829,63.171,26.829z"/>
</g>
<rect y="1" width="245" height="10"/>
</svg>
