<?xml version="1.0" encoding="utf-8"?>
<!-- Generator: Adobe Illustrator 16.0.0, SVG Export Plug-In . SVG Version: 6.00 Build 0)  -->
<!DOCTYPE svg PUBLIC "-//W3C//DTD SVG 1.1//EN" "http://www.w3.org/Graphics/SVG/1.1/DTD/svg11.dtd">
<svg version="1.1" id="Layer_1" xmlns="http://www.w3.org/2000/svg" xmlns:xlink="http://www.w3.org/1999/xlink" x="0px" y="0px"
	 width="245px" height="40px" viewBox="0 0 245 40" enable-background="new 0 0 245 40" xml:space="preserve">
<rect x="0.5" y="0.5" fill="#FFFFFF" stroke="#000000" stroke-miterlimit="10" width="244" height="39"/>
<g>
	<path stroke="#000000" stroke-width="0.25" stroke-miterlimit="10" d="M10,16.189h1.641v7.056h2.391v1.563H10V16.189z"/>
	<path stroke="#000000" stroke-width="0.25" stroke-miterlimit="10" d="M19.349,15.973c1.22,0,2.268,0.44,3.146,1.323
		c0.877,0.884,1.316,1.959,1.316,3.229c0,1.26-0.434,2.322-1.299,3.191c-0.866,0.869-1.916,1.309-3.151,1.309
		c-1.294,0-2.369-0.445-3.225-1.342c-0.856-0.897-1.284-1.957-1.284-3.188c0-0.824,0.199-1.582,0.598-2.272
		c0.398-0.69,0.947-1.239,1.645-1.644C17.793,16.173,18.543,15.973,19.349,15.973z M19.331,17.579c-0.798,0-1.468,0.276-2.012,0.832
		c-0.544,0.557-0.815,1.26-0.815,2.114c0,0.953,0.342,1.707,1.026,2.263c0.532,0.437,1.142,0.649,1.83,0.649
		c0.778,0,1.441-0.28,1.988-0.846c0.547-0.562,0.821-1.257,0.821-2.078c0-0.822-0.276-1.517-0.827-2.083
		C20.791,17.862,20.121,17.579,19.331,17.579z"/>
	<path stroke="#000000" stroke-width="0.25" stroke-miterlimit="10" d="M33.313,17.596l-1.154,1.143
		c-0.73-0.771-1.584-1.159-2.559-1.159c-0.848,0-1.559,0.28-2.13,0.844c-0.573,0.562-0.859,1.246-0.859,2.053
		c0,0.832,0.297,1.537,0.893,2.113c0.595,0.578,1.327,0.867,2.2,0.867c0.565,0,1.045-0.119,1.437-0.355
		c0.389-0.236,0.7-0.607,0.938-1.119h-2.496V20.44h4.336l0.015,0.363c0,0.754-0.195,1.469-0.586,2.146
		c-0.394,0.676-0.896,1.189-1.521,1.547c-0.62,0.354-1.35,0.531-2.186,0.531c-0.896,0-1.691-0.191-2.394-0.584
		c-0.701-0.389-1.256-0.939-1.664-1.658c-0.408-0.721-0.611-1.494-0.611-2.326c0-1.143,0.377-2.133,1.131-2.979
		c0.895-1.004,2.059-1.506,3.492-1.506c0.75,0,1.451,0.141,2.104,0.416C32.247,16.624,32.786,17.025,33.313,17.596z"/>
	<path stroke="#000000" stroke-width="0.25" stroke-miterlimit="10" d="M39.504,15.973c1.221,0,2.27,0.44,3.146,1.323
		c0.877,0.884,1.313,1.959,1.313,3.229c0,1.26-0.435,2.322-1.299,3.191c-0.863,0.869-1.916,1.309-3.149,1.309
		c-1.294,0-2.367-0.445-3.226-1.342c-0.857-0.897-1.285-1.957-1.285-3.188c0-0.824,0.199-1.582,0.601-2.272
		c0.397-0.69,0.946-1.239,1.646-1.644C37.948,16.174,38.698,15.973,39.504,15.973z M39.487,17.579c-0.799,0-1.469,0.276-2.012,0.832
		c-0.545,0.557-0.816,1.26-0.816,2.114c0,0.953,0.342,1.707,1.027,2.263c0.531,0.437,1.141,0.649,1.83,0.649
		c0.777,0,1.439-0.28,1.986-0.846c0.549-0.562,0.82-1.257,0.82-2.078c0-0.822-0.273-1.517-0.826-2.083
		C40.946,17.862,40.276,17.579,39.487,17.579z"/>
</g>
<g>
	<g>
		<path stroke="#000000" stroke-width="0.25" stroke-miterlimit="10" d="M165.255,21.996l2.665,2.666l-0.719,0.73l-2.666-2.904
			c-0.373,0.301-0.785,0.533-1.232,0.707s-0.925,0.262-1.432,0.262c-0.604,0-1.17-0.111-1.696-0.346
			c-0.526-0.223-0.989-0.527-1.386-0.926c-0.396-0.396-0.707-0.854-0.938-1.387c-0.229-0.525-0.345-1.096-0.345-1.707
			c0-0.609,0.112-1.18,0.345-1.707c0.229-0.531,0.541-0.996,0.938-1.391s0.855-0.699,1.386-0.922
			c0.526-0.229,1.093-0.344,1.696-0.344c0.598,0,1.16,0.112,1.688,0.344c0.525,0.223,0.988,0.527,1.385,0.922
			c0.397,0.395,0.707,0.855,0.938,1.391c0.229,0.527,0.343,1.098,0.343,1.707c0,0.529-0.084,1.05-0.255,1.564
			C165.798,21.176,165.561,21.621,165.255,21.996z M161.871,22.486c0.459,0,0.896-0.092,1.312-0.271
			c0.408-0.174,0.771-0.414,1.076-0.719c0.307-0.307,0.553-0.666,0.732-1.082c0.174-0.408,0.262-0.854,0.262-1.322
			c0-0.469-0.088-0.916-0.262-1.332c-0.184-0.407-0.428-0.769-0.732-1.071c-0.309-0.305-0.668-0.55-1.076-0.729
			c-0.418-0.177-0.854-0.261-1.312-0.261c-0.465,0-0.905,0.084-1.321,0.261c-0.41,0.18-0.771,0.424-1.078,0.729
			c-0.308,0.307-0.55,0.664-0.724,1.071c-0.184,0.416-0.271,0.861-0.271,1.332c0,0.472,0.092,0.914,0.271,1.322
			c0.174,0.416,0.416,0.775,0.724,1.082c0.31,0.305,0.668,0.545,1.078,0.719C160.966,22.396,161.408,22.486,161.871,22.486z"/>
	</g>
	<g>
		<path d="M193.925,25.127l-0.102-0.049c-1.055-0.41-1.977-0.93-2.707-1.521c-0.736-0.586-1.33-1.217-1.762-1.877
			c-0.434-0.66-0.721-1.34-0.857-2.021c-0.134-0.684-0.145-1.334-0.031-1.938c0.082-0.416,0.213-0.795,0.391-1.128
			c0.186-0.334,0.41-0.625,0.669-0.865c0.261-0.242,0.565-0.43,0.903-0.559c0.33-0.127,0.688-0.191,1.062-0.191
			c0.426,0,0.866,0.086,1.314,0.256c0.414,0.16,0.832,0.39,1.238,0.687c0.408-0.289,0.82-0.515,1.229-0.67
			c0.442-0.166,0.882-0.251,1.306-0.251c0.375,0,0.732,0.064,1.062,0.193c0.332,0.127,0.634,0.312,0.896,0.549
			c0.26,0.234,0.483,0.521,0.664,0.852c0.187,0.333,0.319,0.709,0.401,1.116c0.108,0.604,0.101,1.253-0.031,1.927
			c-0.141,0.682-0.427,1.359-0.854,2.02c-0.429,0.656-1.019,1.291-1.757,1.885c-0.733,0.596-1.649,1.117-2.724,1.559l-0.104,0.037
			l-0.092,0.008L193.925,25.127z M191.491,16.05c-0.488,0-0.9,0.164-1.262,0.501c-0.361,0.34-0.602,0.799-0.707,1.364
			c-0.09,0.487-0.074,1.013,0.041,1.562c0.119,0.553,0.361,1.107,0.721,1.65c0.361,0.547,0.861,1.08,1.484,1.584
			c0.615,0.492,1.383,0.934,2.277,1.307c0.895-0.379,1.656-0.826,2.27-1.328c0.623-0.504,1.123-1.037,1.484-1.584
			c0.359-0.543,0.603-1.094,0.721-1.639c0.107-0.55,0.119-1.073,0.031-1.553c-0.115-0.558-0.354-1.013-0.713-1.347
			c-0.357-0.334-0.771-0.496-1.258-0.496c-0.336,0-0.691,0.078-1.061,0.233c-0.373,0.16-0.76,0.396-1.146,0.7
			c-0.098,0.078-0.209,0.118-0.334,0.118s-0.237-0.04-0.338-0.12c-0.39-0.312-0.774-0.553-1.149-0.714
			C192.185,16.13,191.829,16.05,191.491,16.05z"/>
		<path d="M199.462,17.737c0.105,0.586,0.098,1.209-0.031,1.869c-0.137,0.666-0.414,1.32-0.832,1.965
			c-0.42,0.646-0.994,1.262-1.727,1.85c-0.725,0.588-1.617,1.102-2.688,1.535c-0.021,0.018-0.045,0.023-0.068,0.027
			c-0.023,0.002-0.049,0.004-0.068,0.004c-0.021,0-0.045-0.002-0.068-0.004c-0.025-0.004-0.049-0.014-0.07-0.027
			c-1.074-0.424-1.973-0.928-2.695-1.516c-0.729-0.58-1.307-1.193-1.729-1.842s-0.699-1.307-0.838-1.972
			c-0.129-0.666-0.141-1.293-0.029-1.88c0.076-0.401,0.201-0.764,0.375-1.085c0.18-0.322,0.395-0.599,0.639-0.827
			c0.248-0.229,0.533-0.404,0.854-0.525c0.312-0.123,0.65-0.184,1.012-0.184c0.406,0,0.828,0.082,1.264,0.247
			c0.432,0.165,0.863,0.407,1.293,0.729c0.43-0.314,0.857-0.553,1.283-0.715c0.428-0.16,0.844-0.24,1.252-0.24
			c0.356,0,0.693,0.061,1.01,0.183s0.6,0.295,0.85,0.521c0.252,0.225,0.463,0.495,0.635,0.812
			C199.253,16.985,199.384,17.343,199.462,17.737z M194.048,24.182c0.938-0.395,1.727-0.854,2.363-1.375
			c0.639-0.516,1.143-1.055,1.516-1.617c0.371-0.562,0.617-1.125,0.74-1.689c0.112-0.573,0.125-1.11,0.031-1.611
			c-0.121-0.595-0.373-1.069-0.76-1.429c-0.383-0.357-0.836-0.537-1.355-0.537c-0.357,0-0.73,0.082-1.117,0.247
			s-0.779,0.403-1.182,0.72c-0.072,0.059-0.152,0.086-0.242,0.086s-0.17-0.027-0.24-0.086c-0.402-0.322-0.799-0.566-1.188-0.734
			c-0.39-0.17-0.765-0.254-1.122-0.254c-0.521,0-0.979,0.182-1.363,0.543c-0.387,0.361-0.639,0.844-0.752,1.444
			c-0.094,0.509-0.08,1.05,0.043,1.623c0.121,0.572,0.369,1.141,0.74,1.701c0.373,0.561,0.877,1.104,1.518,1.617
			C192.318,23.344,193.109,23.795,194.048,24.182z"/>
	</g>
	<g>
		<path d="M206.386,24.709v-9.238h2.07c0.021-0.249,0.078-0.485,0.17-0.703c0.113-0.262,0.275-0.501,0.488-0.714
			c0.213-0.212,0.45-0.375,0.709-0.483c0.258-0.106,0.537-0.162,0.838-0.162c0.299,0,0.58,0.056,0.836,0.162
			c0.26,0.108,0.496,0.271,0.709,0.483c0.213,0.213,0.377,0.452,0.487,0.713c0.095,0.219,0.149,0.455,0.173,0.704h2.07v9.238
			H206.386z M213.948,23.721v-7.262h-6.574v7.262H213.948z M211.874,15.471c-0.018-0.115-0.047-0.227-0.09-0.329
			c-0.059-0.144-0.146-0.274-0.271-0.39c-0.119-0.125-0.246-0.215-0.388-0.271c-0.146-0.059-0.297-0.086-0.465-0.086
			s-0.32,0.027-0.468,0.086c-0.141,0.056-0.268,0.146-0.383,0.265c-0.125,0.121-0.217,0.252-0.272,0.395
			c-0.043,0.104-0.072,0.215-0.09,0.33H211.874z"/>
		<path d="M212.724,15.621h2.062v8.938h-8.25v-8.938h2.062c0.008-0.287,0.062-0.553,0.166-0.795
			c0.104-0.244,0.258-0.467,0.457-0.666c0.2-0.201,0.422-0.352,0.659-0.451c0.24-0.102,0.5-0.15,0.779-0.15
			c0.278,0,0.539,0.05,0.778,0.15c0.238,0.101,0.459,0.25,0.66,0.451c0.198,0.199,0.354,0.422,0.457,0.666
			C212.661,15.07,212.718,15.334,212.724,15.621z M214.099,16.309h-6.875v7.562h6.875V16.309z M209.706,14.644
			c-0.137,0.129-0.236,0.274-0.307,0.44c-0.068,0.164-0.105,0.344-0.113,0.537h2.75c-0.007-0.193-0.045-0.373-0.113-0.537
			c-0.064-0.166-0.17-0.312-0.305-0.44c-0.13-0.136-0.273-0.235-0.436-0.301c-0.162-0.064-0.336-0.097-0.521-0.097
			c-0.185,0-0.357,0.031-0.521,0.097C209.979,14.409,209.833,14.508,209.706,14.644z"/>
	</g>
	<g>
		<path d="M233.321,18.851v1.658h-11.987v-1.658H233.321z M233.321,22.512v1.668h-11.987v-1.668H233.321z M233.334,15.18v1.668
			h-11.988V15.18H233.334z"/>
	</g>
	<path d="M178.235,25.301c-0.756,0-1.477-0.145-2.139-0.432c-0.663-0.293-1.25-0.691-1.745-1.186
		c-0.494-0.494-0.894-1.082-1.185-1.744c-0.287-0.664-0.432-1.385-0.432-2.139c0-0.755,0.145-1.475,0.432-2.139
		c0.291-0.663,0.69-1.25,1.186-1.744c0.496-0.495,1.082-0.895,1.742-1.186c0.664-0.287,1.385-0.432,2.141-0.432
		s1.477,0.145,2.139,0.432c0.663,0.291,1.25,0.69,1.745,1.187c0.494,0.493,0.894,1.081,1.185,1.743
		c0.287,0.664,0.433,1.385,0.433,2.14s-0.146,1.476-0.431,2.14c-0.293,0.662-0.691,1.25-1.187,1.744s-1.082,0.893-1.743,1.186
		C179.712,25.156,178.991,25.301,178.235,25.301z M175.933,23.82c0.332,0.191,0.689,0.344,1.062,0.445
		c0.405,0.113,0.823,0.17,1.241,0.17c0.426,0,0.846-0.057,1.247-0.17c0.368-0.104,0.728-0.254,1.065-0.447
		c-0.018-0.275-0.084-0.537-0.197-0.781c-0.123-0.279-0.29-0.521-0.498-0.723c-0.209-0.203-0.455-0.367-0.732-0.49
		c-0.271-0.113-0.57-0.172-0.885-0.172s-0.613,0.059-0.889,0.174c-0.273,0.121-0.521,0.285-0.729,0.488
		c-0.208,0.199-0.375,0.441-0.496,0.719C176.013,23.277,175.949,23.541,175.933,23.82z M178.235,20.787
		c0.4,0,0.786,0.07,1.146,0.209c0.355,0.139,0.681,0.332,0.961,0.578c0.283,0.246,0.519,0.543,0.701,0.887
		c0.127,0.246,0.224,0.508,0.285,0.781c0.188-0.17,0.363-0.354,0.521-0.549c0.213-0.266,0.396-0.559,0.551-0.871
		c0.152-0.312,0.271-0.643,0.352-0.982c0.08-0.338,0.119-0.688,0.119-1.039c0-0.639-0.123-1.243-0.369-1.8
		c-0.24-0.562-0.574-1.056-0.992-1.474c-0.418-0.42-0.914-0.752-1.474-0.992c-0.558-0.246-1.163-0.369-1.801-0.369
		s-1.243,0.123-1.799,0.369c-0.562,0.24-1.058,0.572-1.476,0.992c-0.418,0.418-0.752,0.912-0.992,1.472
		c-0.246,0.559-0.369,1.163-0.369,1.802c0,0.354,0.039,0.701,0.119,1.039c0.08,0.34,0.199,0.67,0.352,0.982s0.338,0.605,0.551,0.871
		c0.157,0.195,0.332,0.379,0.521,0.549c0.062-0.273,0.158-0.535,0.285-0.779c0.184-0.346,0.418-0.643,0.701-0.889
		c0.28-0.246,0.604-0.439,0.961-0.578C177.449,20.859,177.835,20.787,178.235,20.787z M178.235,20.654
		c-0.283,0-0.541-0.096-0.768-0.279c-0.211-0.18-0.393-0.398-0.541-0.649c-0.145-0.247-0.258-0.513-0.338-0.789
		c-0.082-0.271-0.123-0.515-0.123-0.726c0.023-0.482,0.207-0.889,0.543-1.219c0.338-0.33,0.75-0.498,1.227-0.498
		c0.48,0.017,0.848,0.154,1.158,0.41c0.31,0.258,0.511,0.582,0.595,0.967c0.021,0.137,0.024,0.176,0.024,0.205
		c0,0.022-0.002,0.074-0.01,0.151c0,0.193-0.041,0.438-0.123,0.709c-0.069,0.272-0.183,0.539-0.328,0.788
		c-0.147,0.252-0.332,0.471-0.549,0.648C178.776,20.559,178.519,20.654,178.235,20.654z M178.235,17.359
		c-0.245,0-0.449,0.082-0.625,0.252c-0.175,0.168-0.264,0.369-0.27,0.614c0,0.304,0.109,0.652,0.326,1.036
		c0.135,0.241,0.344,0.528,0.567,0.528c0.216,0,0.423-0.279,0.56-0.515c0.215-0.375,0.328-0.725,0.334-1.039
		c-0.006-0.244-0.092-0.438-0.261-0.607s-0.362-0.254-0.596-0.262l-0.036-0.187V17.359z"/>
</g>
</svg>
