<?xml version="1.0" encoding="utf-8"?>
<!-- Generator: Adobe Illustrator 16.0.0, SVG Export Plug-In . SVG Version: 6.00 Build 0)  -->
<!DOCTYPE svg PUBLIC "-//W3C//DTD SVG 1.1//EN" "http://www.w3.org/Graphics/SVG/1.1/DTD/svg11.dtd">
<svg version="1.1" id="Layer_1" xmlns="http://www.w3.org/2000/svg" xmlns:xlink="http://www.w3.org/1999/xlink" x="0px" y="0px"
	 width="245px" height="44px" viewBox="0 0 245 44" enable-background="new 0 0 245 44" xml:space="preserve">
<rect x="0.5" y="2" fill="#FFFFFF" stroke="#000000" stroke-miterlimit="10" width="243.834" height="41.5"/>
<g>
	<path stroke="#000000" stroke-width="0.25" stroke-miterlimit="10" d="M105.017,27.152h1.641v7.056h2.391v1.563h-4.032V27.152z"/>
	<path stroke="#000000" stroke-width="0.25" stroke-miterlimit="10" d="M114.366,26.936c1.22,0,2.268,0.44,3.146,1.323
		c0.877,0.884,1.316,1.959,1.316,3.229c0,1.26-0.434,2.322-1.299,3.193c-0.866,0.869-1.916,1.307-3.151,1.307
		c-1.294,0-2.369-0.445-3.225-1.342c-0.856-0.896-1.284-1.957-1.284-3.188c0-0.824,0.199-1.582,0.598-2.272
		c0.398-0.69,0.947-1.239,1.645-1.644C112.81,27.136,113.56,26.936,114.366,26.936z M114.348,28.542
		c-0.798,0-1.468,0.276-2.012,0.832s-0.815,1.26-0.815,2.114c0,0.953,0.342,1.707,1.026,2.263c0.532,0.435,1.142,0.649,1.83,0.649
		c0.778,0,1.441-0.28,1.988-0.844c0.547-0.563,0.821-1.257,0.821-2.08c0-0.82-0.276-1.515-0.827-2.083
		C115.808,28.825,115.138,28.542,114.348,28.542z"/>
	<path stroke="#000000" stroke-width="0.25" stroke-miterlimit="10" d="M128.33,28.559l-1.154,1.143
		c-0.732-0.771-1.584-1.159-2.559-1.159c-0.848,0-1.559,0.28-2.13,0.844c-0.573,0.562-0.859,1.246-0.859,2.052
		c0,0.832,0.297,1.537,0.892,2.114c0.596,0.578,1.327,0.867,2.199,0.867c0.566,0,1.045-0.119,1.434-0.356
		c0.389-0.238,0.703-0.61,0.941-1.119h-2.496v-1.541h4.336l0.012,0.363c0,0.754-0.195,1.469-0.586,2.146
		c-0.391,0.676-0.895,1.19-1.518,1.547c-0.621,0.355-1.35,0.532-2.186,0.532c-0.895,0-1.691-0.192-2.394-0.583
		c-0.702-0.389-1.256-0.941-1.664-1.66c-0.408-0.72-0.612-1.494-0.612-2.326c0-1.142,0.377-2.133,1.131-2.978
		c0.895-1.004,2.059-1.506,3.492-1.506c0.75,0,1.451,0.14,2.104,0.416C127.264,27.587,127.803,27.988,128.33,28.559z"/>
	<path stroke="#000000" stroke-width="0.25" stroke-miterlimit="10" d="M134.521,26.936c1.219,0,2.268,0.44,3.145,1.323
		c0.877,0.884,1.316,1.959,1.316,3.229c0,1.26-0.434,2.322-1.299,3.193c-0.865,0.869-1.916,1.307-3.15,1.307
		c-1.295,0-2.369-0.445-3.225-1.342c-0.857-0.896-1.285-1.957-1.285-3.188c0-0.824,0.199-1.582,0.598-2.272
		c0.4-0.69,0.947-1.239,1.646-1.644C132.965,27.138,133.715,26.936,134.521,26.936z M134.502,28.542
		c-0.797,0-1.467,0.276-2.012,0.832c-0.543,0.556-0.814,1.26-0.814,2.114c0,0.953,0.342,1.707,1.025,2.263
		c0.533,0.435,1.143,0.649,1.83,0.649c0.779,0,1.441-0.28,1.988-0.844c0.549-0.564,0.822-1.257,0.822-2.08
		c0-0.82-0.275-1.515-0.828-2.083S135.293,28.542,134.502,28.542z"/>
</g>
<rect width="245" height="20"/>
<g>
	<rect x="10" y="8.5" fill="#FFFFFF" width="12" height="3"/>
	<rect x="30" y="8.5" fill="#FFFFFF" width="12" height="3"/>
	<rect x="50" y="8.5" fill="#FFFFFF" width="12" height="3"/>
	<rect x="70" y="8.5" fill="#FFFFFF" width="12" height="3"/>
</g>
<g>
	<path fill="#FFFFFF" d="M182.766,15.577l-0.098-0.047c-1.025-0.405-1.922-0.913-2.636-1.498c-0.718-0.577-1.295-1.199-1.715-1.847
		c-0.419-0.649-0.7-1.319-0.837-1.99c-0.128-0.673-0.139-1.312-0.031-1.907c0.08-0.409,0.208-0.782,0.381-1.11
		c0.181-0.329,0.399-0.615,0.651-0.853c0.254-0.237,0.551-0.421,0.881-0.548c0.32-0.125,0.668-0.189,1.034-0.189
		c0.415,0,0.846,0.085,1.282,0.253c0.404,0.156,0.811,0.382,1.209,0.674c0.396-0.284,0.799-0.505,1.197-0.659
		c0.432-0.163,0.858-0.247,1.271-0.247c0.366,0,0.714,0.064,1.035,0.19c0.323,0.126,0.617,0.309,0.872,0.541
		c0.254,0.229,0.473,0.511,0.648,0.837c0.18,0.328,0.312,0.698,0.392,1.099c0.107,0.595,0.097,1.233-0.031,1.896
		c-0.136,0.67-0.415,1.337-0.832,1.987c-0.416,0.646-0.991,1.27-1.71,1.853c-0.715,0.585-1.606,1.102-2.652,1.533l-0.102,0.037
		l-0.089,0.007L182.766,15.577z M180.396,6.645c-0.476,0-0.877,0.162-1.229,0.493c-0.352,0.333-0.584,0.785-0.688,1.342
		c-0.087,0.479-0.073,0.997,0.041,1.538c0.115,0.543,0.351,1.09,0.7,1.624c0.354,0.538,0.839,1.063,1.446,1.559
		c0.6,0.485,1.347,0.918,2.219,1.286c0.87-0.373,1.612-0.813,2.21-1.307c0.606-0.496,1.093-1.021,1.445-1.559
		c0.351-0.535,0.586-1.078,0.701-1.614c0.106-0.541,0.117-1.056,0.03-1.528c-0.111-0.549-0.345-0.996-0.694-1.325
		c-0.347-0.329-0.747-0.488-1.223-0.488c-0.328,0-0.676,0.078-1.031,0.231c-0.364,0.157-0.739,0.389-1.117,0.689
		c-0.095,0.077-0.203,0.116-0.325,0.116s-0.232-0.04-0.328-0.118c-0.379-0.307-0.756-0.543-1.122-0.703
		C181.073,6.724,180.725,6.645,180.396,6.645z"/>
	<path fill="#FFFFFF" d="M188.159,8.305c0.104,0.578,0.094,1.19-0.031,1.839c-0.133,0.655-0.403,1.3-0.811,1.935
		c-0.409,0.634-0.968,1.24-1.68,1.818c-0.705,0.578-1.576,1.082-2.615,1.512c-0.021,0.014-0.044,0.023-0.068,0.027
		c-0.023,0.003-0.047,0.005-0.067,0.005c-0.021,0-0.044-0.002-0.067-0.005c-0.025-0.004-0.048-0.013-0.069-0.027
		c-1.046-0.416-1.921-0.913-2.625-1.491c-0.712-0.571-1.272-1.175-1.685-1.813c-0.412-0.637-0.684-1.284-0.816-1.939
		c-0.125-0.655-0.136-1.272-0.031-1.85c0.077-0.395,0.199-0.75,0.366-1.067c0.174-0.317,0.383-0.588,0.622-0.814
		c0.241-0.226,0.519-0.398,0.832-0.518c0.308-0.12,0.635-0.18,0.983-0.18c0.397,0,0.808,0.081,1.229,0.243s0.842,0.402,1.261,0.719
		c0.418-0.311,0.835-0.544,1.25-0.703c0.415-0.158,0.821-0.238,1.219-0.238c0.349,0,0.676,0.06,0.983,0.18
		c0.307,0.12,0.582,0.291,0.826,0.513c0.244,0.221,0.45,0.487,0.617,0.798C187.956,7.564,188.082,7.917,188.159,8.305z
		 M182.887,14.647c0.914-0.387,1.68-0.839,2.301-1.353c0.621-0.507,1.113-1.038,1.476-1.591c0.362-0.553,0.603-1.108,0.722-1.665
		c0.111-0.564,0.122-1.092,0.031-1.585c-0.119-0.585-0.364-1.053-0.738-1.406c-0.372-0.353-0.813-0.529-1.322-0.529
		c-0.35,0-0.712,0.081-1.088,0.243c-0.377,0.163-0.76,0.398-1.151,0.708c-0.069,0.057-0.148,0.084-0.234,0.084
		c-0.088,0-0.167-0.028-0.236-0.084c-0.391-0.317-0.775-0.559-1.156-0.724c-0.379-0.167-0.743-0.249-1.093-0.249
		c-0.509,0-0.952,0.178-1.328,0.533c-0.377,0.356-0.621,0.831-0.732,1.422c-0.091,0.5-0.077,1.032,0.042,1.596
		c0.118,0.564,0.359,1.123,0.722,1.675c0.362,0.554,0.854,1.084,1.475,1.591C181.202,13.823,181.973,14.267,182.887,14.647z"/>
</g>
<g>
	<path fill="#FFFFFF" d="M195.339,15.088V6.096h2.015c0.02-0.242,0.076-0.473,0.167-0.685c0.109-0.254,0.269-0.487,0.475-0.694
		c0.207-0.207,0.439-0.365,0.689-0.471c0.251-0.104,0.524-0.158,0.815-0.158s0.564,0.053,0.814,0.158
		c0.251,0.106,0.483,0.264,0.69,0.471c0.206,0.207,0.365,0.44,0.475,0.694c0.091,0.213,0.147,0.443,0.167,0.686h2.015v8.992H195.339
		z M202.7,14.126V7.058h-6.4v7.068H202.7z M200.68,6.096c-0.017-0.112-0.044-0.22-0.087-0.321c-0.058-0.139-0.146-0.266-0.263-0.379
		c-0.117-0.122-0.24-0.208-0.377-0.262c-0.142-0.057-0.29-0.084-0.453-0.084s-0.312,0.027-0.453,0.084
		c-0.137,0.054-0.26,0.141-0.372,0.257c-0.122,0.118-0.21,0.245-0.268,0.383c-0.043,0.102-0.07,0.209-0.087,0.322H200.68z"/>
	<path fill="#FFFFFF" d="M201.508,6.242h2.008v8.7h-8.031v-8.7h2.008c0.007-0.278,0.061-0.537,0.162-0.774
		c0.103-0.236,0.249-0.453,0.445-0.648c0.194-0.194,0.409-0.34,0.642-0.438c0.234-0.098,0.487-0.147,0.759-0.147
		s0.524,0.049,0.759,0.147c0.232,0.098,0.447,0.244,0.642,0.438c0.196,0.195,0.343,0.412,0.445,0.648
		C201.447,5.705,201.501,5.963,201.508,6.242z M202.846,6.911h-6.691v7.361h6.691V6.911z M198.569,5.29
		c-0.133,0.125-0.231,0.268-0.297,0.429c-0.068,0.161-0.104,0.335-0.111,0.522h2.678c-0.007-0.188-0.043-0.362-0.111-0.522
		c-0.065-0.161-0.164-0.304-0.297-0.429c-0.125-0.132-0.267-0.229-0.424-0.293c-0.157-0.062-0.325-0.094-0.507-0.094
		s-0.35,0.032-0.507,0.094C198.836,5.061,198.695,5.158,198.569,5.29z"/>
</g>
<g>
	<path fill="#FFFFFF" stroke="#FFFFFF" stroke-width="0.25" stroke-miterlimit="10" d="M232.439,12.443l2.561,2.5l-0.688,0.684
		l-2.562-2.724c-0.359,0.281-0.756,0.5-1.184,0.663c-0.43,0.164-0.889,0.244-1.375,0.244c-0.582,0-1.125-0.106-1.631-0.323
		c-0.506-0.208-0.949-0.495-1.33-0.868c-0.381-0.371-0.68-0.802-0.9-1.3c-0.218-0.494-0.33-1.028-0.33-1.601s0.109-1.107,0.33-1.602
		c0.219-0.499,0.52-0.935,0.9-1.304s0.822-0.656,1.33-0.864c0.506-0.215,1.051-0.322,1.631-0.322c0.572,0,1.113,0.105,1.619,0.322
		c0.506,0.208,0.949,0.495,1.33,0.864s0.68,0.803,0.902,1.304c0.221,0.495,0.328,1.029,0.328,1.602c0,0.496-0.08,0.984-0.244,1.467
		C232.964,11.674,232.734,12.092,232.439,12.443z M229.191,12.903c0.439,0,0.859-0.085,1.26-0.255
		c0.393-0.163,0.738-0.389,1.033-0.674c0.295-0.286,0.531-0.625,0.703-1.016c0.168-0.383,0.252-0.797,0.252-1.239
		c0-0.441-0.084-0.859-0.252-1.25c-0.174-0.383-0.408-0.72-0.703-1.006c-0.297-0.284-0.641-0.515-1.033-0.683
		c-0.402-0.165-0.822-0.244-1.26-0.244c-0.446,0-0.871,0.079-1.27,0.244c-0.395,0.168-0.739,0.397-1.035,0.683
		c-0.297,0.288-0.529,0.623-0.695,1.006c-0.176,0.391-0.262,0.808-0.262,1.25c0,0.442,0.088,0.856,0.262,1.239
		c0.166,0.391,0.398,0.73,0.695,1.016c0.297,0.285,0.641,0.511,1.035,0.674C228.32,12.818,228.746,12.903,229.191,12.903z"/>
</g>
<path fill="#FFFFFF" d="M215.5,16.125c-0.756,0-1.476-0.145-2.139-0.431c-0.663-0.292-1.249-0.691-1.745-1.186
	c-0.494-0.495-0.894-1.082-1.185-1.743C210.145,12.1,210,11.38,210,10.625s0.145-1.475,0.431-2.139
	c0.292-0.663,0.691-1.25,1.186-1.745c0.496-0.495,1.082-0.894,1.743-1.186c0.665-0.286,1.385-0.431,2.141-0.431
	s1.476,0.145,2.139,0.431c0.663,0.292,1.249,0.691,1.745,1.186c0.494,0.495,0.894,1.082,1.185,1.743
	C220.855,9.15,221,9.87,221,10.625s-0.145,1.475-0.431,2.139c-0.292,0.663-0.691,1.25-1.186,1.745
	c-0.496,0.495-1.082,0.894-1.743,1.185C216.976,15.98,216.256,16.125,215.5,16.125z M213.197,14.643
	c0.333,0.193,0.689,0.344,1.062,0.447c0.405,0.113,0.823,0.17,1.241,0.17c0.426,0,0.845-0.057,1.247-0.169
	c0.368-0.104,0.728-0.254,1.065-0.448c-0.017-0.276-0.084-0.539-0.197-0.782c-0.123-0.279-0.29-0.521-0.498-0.722
	c-0.209-0.203-0.455-0.367-0.732-0.49c-0.271-0.114-0.57-0.172-0.885-0.172s-0.613,0.058-0.888,0.173
	c-0.274,0.122-0.521,0.286-0.729,0.489c-0.208,0.201-0.375,0.443-0.497,0.719C213.277,14.102,213.214,14.366,213.197,14.643z
	 M215.5,11.612c0.401,0,0.786,0.07,1.146,0.209c0.356,0.139,0.681,0.333,0.961,0.578c0.283,0.246,0.519,0.544,0.701,0.887
	c0.128,0.246,0.224,0.507,0.286,0.78c0.188-0.169,0.363-0.353,0.521-0.548c0.213-0.265,0.397-0.559,0.551-0.871
	c0.152-0.312,0.271-0.643,0.351-0.981c0.08-0.338,0.12-0.688,0.12-1.041c0-0.638-0.124-1.243-0.369-1.8
	c-0.241-0.56-0.574-1.056-0.993-1.474c-0.418-0.419-0.914-0.752-1.473-0.992c-0.558-0.246-1.163-0.37-1.801-0.37
	s-1.243,0.124-1.799,0.369c-0.561,0.24-1.057,0.574-1.475,0.993c-0.419,0.418-0.752,0.914-0.992,1.472
	c-0.246,0.558-0.37,1.164-0.37,1.801c0,0.352,0.04,0.702,0.12,1.041c0.079,0.339,0.198,0.669,0.351,0.981
	c0.153,0.312,0.338,0.606,0.551,0.872c0.157,0.195,0.332,0.378,0.521,0.548c0.062-0.273,0.158-0.534,0.285-0.779
	c0.184-0.345,0.419-0.643,0.702-0.889c0.28-0.245,0.604-0.439,0.961-0.578C214.714,11.682,215.099,11.612,215.5,11.612z
	 M215.5,11.479c-0.283,0-0.541-0.094-0.768-0.28c-0.21-0.181-0.392-0.399-0.54-0.65c-0.145-0.248-0.259-0.513-0.339-0.789
	c-0.081-0.271-0.122-0.515-0.122-0.725c0.023-0.483,0.206-0.89,0.543-1.219c0.338-0.33,0.75-0.498,1.226-0.498
	c0.481,0.016,0.848,0.153,1.158,0.41c0.311,0.257,0.511,0.583,0.595,0.967c0.021,0.136,0.025,0.175,0.025,0.205
	c0,0.023-0.003,0.074-0.011,0.153c0.001,0.192-0.04,0.437-0.122,0.708c-0.07,0.272-0.183,0.54-0.328,0.788
	c-0.148,0.252-0.333,0.471-0.549,0.649C216.041,11.384,215.783,11.479,215.5,11.479z M215.5,8.183c-0.245,0-0.449,0.082-0.625,0.251
	c-0.175,0.168-0.263,0.37-0.269,0.615c0,0.303,0.109,0.653,0.325,1.037c0.136,0.241,0.345,0.528,0.568,0.528
	c0.216,0,0.423-0.279,0.559-0.514c0.216-0.374,0.328-0.723,0.335-1.038c-0.006-0.245-0.092-0.44-0.261-0.609
	c-0.169-0.169-0.363-0.254-0.596-0.26L215.5,8.005V8.183z"/>
</svg>
