<?xml version="1.0" encoding="utf-8"?>
<!-- Generator: Adobe Illustrator 16.0.0, SVG Export Plug-In . SVG Version: 6.00 Build 0)  -->
<!DOCTYPE svg PUBLIC "-//W3C//DTD SVG 1.1//EN" "http://www.w3.org/Graphics/SVG/1.1/DTD/svg11.dtd">
<svg version="1.1" id="Layer_1" xmlns="http://www.w3.org/2000/svg" xmlns:xlink="http://www.w3.org/1999/xlink" x="0px" y="0px"
	 width="245px" height="60px" viewBox="0 0 245 60" enable-background="new 0 0 245 60" xml:space="preserve">
<rect x="0.5" y="0.5" fill="#FFFFFF" stroke="#000000" stroke-miterlimit="10" width="244" height="59"/>
<rect x="1" y="0.688" width="243" height="20"/>
<g>
	<path stroke="#000000" stroke-width="0.25" stroke-miterlimit="10" d="M12,35.337h1.641v7.056h2.391v1.563H12V35.337z"/>
	<path stroke="#000000" stroke-width="0.25" stroke-miterlimit="10" d="M21.349,35.12c1.22,0,2.268,0.44,3.146,1.323
		c0.877,0.884,1.316,1.959,1.316,3.229c0,1.26-0.434,2.322-1.299,3.193c-0.866,0.869-1.916,1.307-3.151,1.307
		c-1.294,0-2.369-0.445-3.225-1.342c-0.856-0.896-1.284-1.957-1.284-3.188c0-0.824,0.199-1.582,0.598-2.272
		c0.398-0.69,0.947-1.239,1.645-1.644C19.793,35.32,20.543,35.12,21.349,35.12z M21.331,36.727c-0.798,0-1.468,0.276-2.012,0.832
		s-0.815,1.26-0.815,2.114c0,0.953,0.342,1.707,1.026,2.263c0.532,0.435,1.142,0.649,1.83,0.649c0.778,0,1.441-0.28,1.988-0.844
		c0.547-0.563,0.821-1.257,0.821-2.08c0-0.82-0.276-1.515-0.827-2.083C22.791,37.01,22.121,36.727,21.331,36.727z"/>
	<path stroke="#000000" stroke-width="0.25" stroke-miterlimit="10" d="M35.314,36.743l-1.155,1.143
		c-0.731-0.771-1.583-1.159-2.558-1.159c-0.848,0-1.559,0.28-2.131,0.844c-0.573,0.562-0.859,1.246-0.859,2.052
		c0,0.832,0.297,1.537,0.892,2.114c0.595,0.578,1.327,0.867,2.2,0.867c0.566,0,1.045-0.119,1.434-0.356
		c0.389-0.238,0.703-0.61,0.941-1.119h-2.496v-1.541h4.336l0.012,0.363c0,0.754-0.195,1.469-0.586,2.146
		c-0.391,0.676-0.896,1.19-1.518,1.547c-0.622,0.355-1.35,0.532-2.186,0.532c-0.895,0-1.692-0.192-2.394-0.583
		c-0.702-0.389-1.256-0.941-1.664-1.66c-0.408-0.72-0.612-1.494-0.612-2.326c0-1.142,0.377-2.133,1.131-2.978
		c0.895-1.004,2.059-1.506,3.492-1.506c0.75,0,1.451,0.14,2.104,0.416C34.248,35.771,34.787,36.173,35.314,36.743z"/>
	<path stroke="#000000" stroke-width="0.25" stroke-miterlimit="10" d="M41.505,35.12c1.22,0,2.269,0.44,3.146,1.323
		c0.877,0.884,1.316,1.959,1.316,3.229c0,1.26-0.434,2.322-1.299,3.193c-0.865,0.869-1.916,1.307-3.151,1.307
		c-1.294,0-2.368-0.445-3.225-1.342s-1.284-1.957-1.284-3.188c0-0.824,0.199-1.582,0.598-2.272s0.947-1.239,1.645-1.644
		C39.948,35.322,40.699,35.12,41.505,35.12z M41.487,36.727c-0.798,0-1.468,0.276-2.012,0.832s-0.815,1.26-0.815,2.114
		c0,0.953,0.342,1.707,1.026,2.263c0.532,0.435,1.142,0.649,1.83,0.649c0.778,0,1.44-0.28,1.988-0.844
		c0.548-0.564,0.821-1.257,0.821-2.08c0-0.82-0.275-1.515-0.827-2.083C42.946,37.01,42.277,36.727,41.487,36.727z"/>
</g>
<g>
	<path stroke="#000000" stroke-width="0.25" stroke-miterlimit="10" d="M195.575,41.073l2.665,2.666l-0.719,0.729l-2.666-2.904
		c-0.373,0.3-0.785,0.533-1.232,0.707c-0.447,0.175-0.925,0.261-1.432,0.261c-0.604,0-1.17-0.113-1.696-0.345
		c-0.527-0.222-0.989-0.528-1.386-0.926c-0.396-0.396-0.707-0.854-0.938-1.386c-0.229-0.526-0.344-1.096-0.344-1.707
		c0-0.61,0.113-1.18,0.344-1.707c0.229-0.532,0.541-0.996,0.938-1.391c0.396-0.394,0.856-0.699,1.386-0.921
		c0.526-0.229,1.093-0.344,1.696-0.344c0.598,0,1.16,0.112,1.687,0.344c0.526,0.222,0.989,0.527,1.386,0.921
		c0.396,0.395,0.707,0.856,0.938,1.391c0.229,0.527,0.343,1.097,0.343,1.707c0,0.529-0.084,1.05-0.255,1.565
		C196.118,40.253,195.881,40.698,195.575,41.073z M192.191,41.563c0.459,0,0.896-0.092,1.312-0.271
		c0.409-0.174,0.771-0.414,1.077-0.719s0.553-0.666,0.732-1.082c0.174-0.408,0.262-0.852,0.262-1.322
		c0-0.47-0.088-0.916-0.262-1.332c-0.182-0.408-0.426-0.768-0.732-1.072c-0.309-0.304-0.668-0.549-1.077-0.729
		c-0.417-0.176-0.854-0.26-1.312-0.26c-0.465,0-0.905,0.084-1.321,0.26c-0.41,0.18-0.771,0.424-1.078,0.729
		c-0.308,0.307-0.55,0.664-0.724,1.072c-0.183,0.416-0.271,0.861-0.271,1.332s0.092,0.914,0.271,1.322
		c0.174,0.416,0.416,0.777,0.724,1.082c0.31,0.305,0.668,0.545,1.078,0.719C191.286,41.472,191.729,41.563,192.191,41.563z"/>
</g>
<g>
	<rect x="81" y="38" width="12" height="3"/>
	<rect x="101" y="38" width="12" height="3"/>
	<rect x="121" y="38" width="12" height="3"/>
	<rect x="141" y="38" width="12" height="3"/>
</g>
<g>
	<path d="M210.013,44.207l-0.101-0.048c-1.053-0.411-1.974-0.928-2.706-1.522c-0.737-0.586-1.33-1.218-1.761-1.877
		c-0.431-0.66-0.72-1.341-0.859-2.022c-0.132-0.684-0.143-1.334-0.032-1.938c0.082-0.416,0.214-0.795,0.391-1.128
		c0.186-0.334,0.41-0.625,0.669-0.866c0.261-0.241,0.565-0.429,0.904-0.558c0.329-0.127,0.687-0.192,1.062-0.192
		c0.426,0,0.868,0.087,1.316,0.257c0.415,0.159,0.832,0.389,1.241,0.686c0.407-0.289,0.82-0.514,1.229-0.67
		c0.443-0.166,0.882-0.251,1.305-0.251c0.376,0,0.733,0.065,1.063,0.193c0.332,0.128,0.634,0.313,0.896,0.55
		c0.261,0.233,0.485,0.52,0.665,0.851c0.185,0.333,0.32,0.709,0.402,1.116c0.11,0.604,0.1,1.253-0.032,1.927
		c-0.139,0.681-0.426,1.359-0.854,2.02c-0.428,0.656-1.019,1.29-1.757,1.883c-0.733,0.595-1.649,1.119-2.723,1.558l-0.104,0.037
		l-0.092,0.007L210.013,44.207z M207.58,35.13c-0.488,0-0.9,0.164-1.262,0.501c-0.361,0.339-0.6,0.798-0.707,1.364
		c-0.089,0.487-0.075,1.013,0.042,1.562c0.118,0.552,0.36,1.107,0.72,1.65c0.362,0.547,0.861,1.08,1.484,1.584
		c0.616,0.493,1.383,0.933,2.278,1.307c0.894-0.379,1.656-0.826,2.27-1.328c0.623-0.504,1.122-1.037,1.484-1.584
		c0.359-0.543,0.602-1.095,0.72-1.64c0.109-0.55,0.12-1.073,0.031-1.553c-0.114-0.558-0.354-1.012-0.713-1.347
		c-0.356-0.334-0.768-0.496-1.256-0.496c-0.337,0-0.693,0.079-1.059,0.234c-0.374,0.16-0.76,0.396-1.147,0.7
		c-0.097,0.078-0.209,0.118-0.334,0.118s-0.238-0.04-0.337-0.12c-0.389-0.312-0.776-0.552-1.152-0.714
		C208.274,35.21,207.917,35.13,207.58,35.13z"/>
	<path d="M215.551,36.816c0.107,0.587,0.097,1.21-0.032,1.869c-0.136,0.666-0.414,1.321-0.832,1.966
		c-0.42,0.645-0.994,1.261-1.725,1.848c-0.724,0.587-1.618,1.1-2.686,1.536c-0.021,0.015-0.045,0.023-0.07,0.027
		c-0.024,0.003-0.048,0.005-0.069,0.005s-0.045-0.002-0.069-0.005c-0.025-0.004-0.049-0.013-0.07-0.027
		c-1.074-0.423-1.973-0.928-2.696-1.515c-0.73-0.58-1.307-1.194-1.729-1.843c-0.423-0.647-0.702-1.305-0.838-1.971
		c-0.129-0.666-0.14-1.293-0.032-1.88c0.079-0.401,0.204-0.763,0.376-1.085c0.179-0.322,0.393-0.598,0.639-0.827
		c0.248-0.229,0.532-0.404,0.854-0.526c0.315-0.122,0.651-0.183,1.01-0.183c0.408,0,0.829,0.082,1.263,0.247
		c0.433,0.165,0.864,0.408,1.294,0.73c0.43-0.315,0.857-0.553,1.284-0.715c0.426-0.16,0.843-0.241,1.251-0.241
		c0.358,0,0.694,0.061,1.01,0.183s0.598,0.295,0.849,0.521c0.251,0.225,0.462,0.495,0.634,0.811
		C215.343,36.064,215.472,36.423,215.551,36.816z M210.137,43.262c0.938-0.394,1.726-0.853,2.363-1.375
		c0.638-0.516,1.143-1.055,1.515-1.617c0.372-0.562,0.619-1.126,0.741-1.691c0.114-0.573,0.125-1.11,0.032-1.611
		c-0.122-0.595-0.374-1.07-0.758-1.429c-0.383-0.358-0.836-0.537-1.358-0.537c-0.358,0-0.73,0.082-1.117,0.247
		s-0.78,0.404-1.182,0.72c-0.071,0.058-0.152,0.086-0.241,0.086c-0.09,0-0.171-0.028-0.242-0.086
		c-0.401-0.322-0.797-0.567-1.188-0.735c-0.39-0.169-0.764-0.253-1.122-0.253c-0.522,0-0.978,0.181-1.364,0.542
		c-0.387,0.362-0.638,0.844-0.752,1.445c-0.093,0.509-0.079,1.049,0.043,1.622s0.369,1.141,0.741,1.702
		c0.372,0.562,0.877,1.102,1.515,1.617C208.407,42.424,209.198,42.875,210.137,43.262z"/>
</g>
<g>
	<path d="M223.475,44.15v-9.238h2.07c0.021-0.249,0.078-0.485,0.171-0.703c0.112-0.262,0.276-0.501,0.488-0.714
		c0.213-0.212,0.451-0.375,0.708-0.483c0.258-0.107,0.539-0.162,0.838-0.162s0.58,0.055,0.837,0.162
		c0.258,0.108,0.496,0.271,0.709,0.483c0.212,0.213,0.376,0.452,0.488,0.713c0.093,0.219,0.15,0.455,0.171,0.704h2.07v9.238H223.475
		z M231.037,43.162V35.9h-6.574v7.262H231.037z M228.962,34.912c-0.017-0.115-0.046-0.226-0.089-0.329
		c-0.059-0.144-0.149-0.274-0.271-0.39c-0.119-0.125-0.247-0.214-0.387-0.27c-0.146-0.059-0.298-0.086-0.466-0.086
		s-0.32,0.027-0.466,0.086c-0.14,0.056-0.268,0.145-0.382,0.265c-0.126,0.12-0.217,0.251-0.275,0.394
		c-0.043,0.104-0.072,0.215-0.089,0.33H228.962z"/>
	<path d="M229.812,35.062h2.062V44h-8.25v-8.938h2.062c0.007-0.286,0.062-0.552,0.166-0.795c0.104-0.243,0.257-0.466,0.457-0.666
		s0.421-0.351,0.66-0.451c0.24-0.101,0.5-0.15,0.779-0.15s0.539,0.05,0.779,0.15c0.239,0.101,0.46,0.251,0.66,0.451
		s0.353,0.423,0.457,0.666C229.75,34.511,229.806,34.776,229.812,35.062z M231.188,35.75h-6.875v7.562h6.875V35.75z M226.794,34.085
		c-0.136,0.129-0.238,0.275-0.306,0.44c-0.068,0.165-0.106,0.344-0.113,0.537h2.75c-0.007-0.193-0.045-0.372-0.113-0.537
		c-0.067-0.165-0.17-0.312-0.306-0.44c-0.129-0.136-0.274-0.236-0.435-0.301c-0.162-0.064-0.335-0.097-0.521-0.097
		s-0.359,0.032-0.521,0.097C227.068,33.849,226.923,33.949,226.794,34.085z"/>
</g>
<text transform="matrix(1 0 0 1 172.165 12.7412)" fill="#404040" font-family="'cleversoft'" font-size="4.9805">  쉃  쉃  쉃  쉃  쉃  쉃</text>
</svg>
