<?xml version="1.0" encoding="utf-8"?>
<!-- Generator: Adobe Illustrator 16.0.0, SVG Export Plug-In . SVG Version: 6.00 Build 0)  -->
<!DOCTYPE svg PUBLIC "-//W3C//DTD SVG 1.1//EN" "http://www.w3.org/Graphics/SVG/1.1/DTD/svg11.dtd">
<svg version="1.1" id="Layer_1" xmlns="http://www.w3.org/2000/svg" xmlns:xlink="http://www.w3.org/1999/xlink" x="0px" y="0px"
	 width="245px" height="44px" viewBox="0 0 245 44" enable-background="new 0 0 245 44" xml:space="preserve">
<rect x="0.5" fill="#FFFFFF" stroke="#000000" stroke-miterlimit="10" width="243.834" height="43.5"/>
<g>
	<path stroke="#000000" stroke-width="0.25" stroke-miterlimit="10" d="M11.197,18.673h1.641v7.056h2.391v1.563h-4.032V18.673
		L11.197,18.673z"/>
	<path stroke="#000000" stroke-width="0.25" stroke-miterlimit="10" d="M20.546,18.457c1.22,0,2.268,0.44,3.146,1.323
		c0.877,0.884,1.316,1.959,1.316,3.229c0,1.261-0.434,2.322-1.299,3.193c-0.866,0.868-1.916,1.307-3.151,1.307
		c-1.294,0-2.369-0.444-3.225-1.342c-0.856-0.896-1.284-1.957-1.284-3.188c0-0.823,0.199-1.582,0.598-2.271
		c0.398-0.69,0.947-1.239,1.645-1.644C18.99,18.657,19.74,18.457,20.546,18.457z M20.528,20.063c-0.798,0-1.468,0.276-2.012,0.832
		s-0.815,1.26-0.815,2.114c0,0.953,0.342,1.707,1.026,2.263c0.532,0.436,1.142,0.649,1.83,0.649c0.778,0,1.441-0.28,1.988-0.844
		s0.821-1.257,0.821-2.08c0-0.82-0.276-1.515-0.827-2.083C21.988,20.346,21.318,20.063,20.528,20.063z"/>
	<path stroke="#000000" stroke-width="0.25" stroke-miterlimit="10" d="M34.511,20.08l-1.154,1.143
		c-0.732-0.771-1.584-1.159-2.559-1.159c-0.848,0-1.559,0.28-2.13,0.844c-0.573,0.562-0.859,1.246-0.859,2.052
		c0,0.832,0.297,1.537,0.892,2.114c0.596,0.578,1.327,0.867,2.199,0.867c0.566,0,1.045-0.119,1.434-0.356s0.703-0.61,0.941-1.119
		h-2.496v-1.541h4.336l0.012,0.363c0,0.754-0.195,1.469-0.586,2.146c-0.391,0.676-0.895,1.19-1.518,1.547
		c-0.621,0.355-1.35,0.533-2.186,0.533c-0.895,0-1.691-0.193-2.394-0.584c-0.702-0.389-1.256-0.94-1.664-1.66
		c-0.408-0.72-0.612-1.494-0.612-2.326c0-1.142,0.377-2.132,1.131-2.978c0.895-1.004,2.059-1.506,3.492-1.506
		c0.75,0,1.451,0.14,2.104,0.416C33.444,19.108,33.983,19.509,34.511,20.08z"/>
	<path stroke="#000000" stroke-width="0.25" stroke-miterlimit="10" d="M40.702,18.457c1.219,0,2.268,0.44,3.145,1.323
		c0.877,0.884,1.316,1.959,1.316,3.229c0,1.261-0.434,2.322-1.299,3.193c-0.865,0.868-1.916,1.307-3.15,1.307
		c-1.295,0-2.369-0.444-3.225-1.342c-0.857-0.896-1.285-1.957-1.285-3.188c0-0.823,0.199-1.582,0.598-2.271
		c0.4-0.69,0.947-1.239,1.646-1.644C39.146,18.659,39.896,18.457,40.702,18.457z M40.683,20.063c-0.797,0-1.467,0.276-2.012,0.832
		c-0.543,0.556-0.814,1.26-0.814,2.114c0,0.953,0.342,1.707,1.025,2.263c0.533,0.436,1.143,0.649,1.83,0.649
		c0.779,0,1.441-0.28,1.988-0.844c0.549-0.563,0.822-1.257,0.822-2.08c0-0.82-0.275-1.515-0.828-2.083
		C42.141,20.346,41.474,20.063,40.683,20.063z"/>
</g>
<rect x="54.5" width="190.5" height="44"/>
<g>
	<rect x="65.167" y="32" fill="#FFFFFF" width="12" height="3"/>
	<rect x="85.167" y="32" fill="#FFFFFF" width="12" height="3"/>
	<rect x="105.167" y="32" fill="#FFFFFF" width="12" height="3"/>
	<rect x="125.167" y="32" fill="#FFFFFF" width="12" height="3"/>
</g>
<g>
	<path fill="#FFFFFF" d="M196.766,39.452l-0.098-0.048c-1.025-0.403-1.922-0.912-2.636-1.497c-0.718-0.576-1.296-1.199-1.716-1.849
		c-0.418-0.647-0.699-1.317-0.836-1.99c-0.129-0.672-0.14-1.312-0.031-1.905c0.08-0.409,0.208-0.782,0.381-1.11
		c0.181-0.328,0.398-0.613,0.65-0.852c0.254-0.238,0.552-0.422,0.881-0.549c0.32-0.125,0.668-0.189,1.035-0.189
		c0.414,0,0.846,0.086,1.281,0.253c0.404,0.156,0.811,0.382,1.209,0.675c0.396-0.285,0.799-0.506,1.197-0.66
		c0.432-0.162,0.857-0.246,1.271-0.246c0.365,0,0.713,0.064,1.035,0.189c0.322,0.127,0.616,0.309,0.871,0.541
		c0.254,0.23,0.473,0.512,0.648,0.838c0.18,0.327,0.312,0.697,0.392,1.1c0.107,0.594,0.097,1.231-0.03,1.896
		c-0.137,0.67-0.416,1.337-0.832,1.987c-0.416,0.646-0.992,1.27-1.711,1.854c-0.715,0.584-1.605,1.102-2.651,1.531l-0.103,0.037
		l-0.089,0.007L196.766,39.452z M194.396,30.52c-0.477,0-0.877,0.162-1.229,0.494s-0.584,0.784-0.688,1.342
		c-0.086,0.479-0.072,0.998,0.041,1.539c0.115,0.543,0.352,1.09,0.701,1.623c0.354,0.539,0.838,1.062,1.445,1.559
		c0.6,0.486,1.348,0.918,2.219,1.287c0.87-0.373,1.612-0.813,2.211-1.309c0.605-0.496,1.092-1.021,1.444-1.559
		c0.351-0.534,0.586-1.077,0.701-1.614c0.106-0.541,0.116-1.056,0.03-1.526c-0.111-0.549-0.346-0.996-0.694-1.326
		c-0.347-0.327-0.747-0.487-1.224-0.487c-0.328,0-0.676,0.078-1.031,0.229c-0.363,0.158-0.738,0.391-1.116,0.689
		c-0.095,0.076-0.203,0.116-0.325,0.116s-0.232-0.04-0.328-0.118c-0.379-0.307-0.756-0.543-1.121-0.703
		C195.073,30.6,194.725,30.52,194.396,30.52z"/>
	<path fill="#FFFFFF" d="M202.159,32.18c0.104,0.577,0.094,1.19-0.031,1.84c-0.133,0.655-0.403,1.301-0.812,1.936
		c-0.408,0.633-0.967,1.24-1.68,1.816c-0.705,0.578-1.576,1.082-2.615,1.513c-0.021,0.015-0.043,0.022-0.067,0.026
		c-0.022,0.004-0.047,0.006-0.067,0.006s-0.044-0.002-0.066-0.006c-0.025-0.004-0.049-0.013-0.069-0.026
		c-1.046-0.416-1.921-0.913-2.625-1.491c-0.712-0.57-1.272-1.175-1.685-1.812c-0.412-0.637-0.685-1.283-0.816-1.938
		c-0.125-0.655-0.137-1.272-0.031-1.851c0.077-0.396,0.199-0.75,0.366-1.066c0.174-0.318,0.383-0.589,0.622-0.814
		c0.24-0.227,0.52-0.397,0.832-0.518c0.309-0.121,0.635-0.18,0.982-0.18c0.397,0,0.809,0.08,1.229,0.242
		c0.422,0.162,0.842,0.401,1.261,0.719c0.418-0.311,0.836-0.543,1.25-0.703c0.415-0.157,0.821-0.237,1.219-0.237
		c0.35,0,0.677,0.06,0.983,0.181c0.308,0.119,0.582,0.289,0.826,0.513c0.244,0.222,0.45,0.487,0.617,0.799
		C201.956,31.439,202.082,31.793,202.159,32.18z M196.887,38.521c0.914-0.388,1.68-0.84,2.301-1.354
		c0.621-0.508,1.113-1.037,1.477-1.592c0.361-0.553,0.604-1.107,0.722-1.664c0.111-0.564,0.122-1.092,0.031-1.586
		c-0.119-0.585-0.364-1.053-0.737-1.405c-0.373-0.354-0.813-0.528-1.322-0.528c-0.351,0-0.713,0.08-1.088,0.243
		c-0.377,0.162-0.761,0.397-1.151,0.708c-0.069,0.057-0.147,0.086-0.234,0.086c-0.088,0-0.167-0.029-0.235-0.086
		c-0.392-0.316-0.775-0.559-1.156-0.724c-0.379-0.166-0.743-0.249-1.094-0.249c-0.508,0-0.951,0.178-1.328,0.533
		s-0.62,0.83-0.731,1.422c-0.091,0.501-0.077,1.033,0.042,1.597c0.118,0.563,0.359,1.122,0.723,1.675
		c0.361,0.555,0.854,1.084,1.475,1.592C195.202,37.698,195.973,38.143,196.887,38.521z"/>
</g>
<g>
	<path fill="#FFFFFF" d="M209.339,38.963v-8.992h2.015c0.021-0.242,0.076-0.473,0.168-0.686c0.108-0.254,0.269-0.486,0.475-0.693
		c0.207-0.207,0.439-0.365,0.689-0.471s0.523-0.158,0.814-0.158s0.564,0.053,0.814,0.158s0.482,0.264,0.689,0.471
		c0.206,0.207,0.365,0.439,0.475,0.693c0.092,0.213,0.147,0.443,0.168,0.686h2.015v8.992H209.339z M216.7,38.001v-7.067h-6.4v7.067
		H216.7z M214.68,29.971c-0.017-0.111-0.044-0.22-0.087-0.32c-0.058-0.14-0.146-0.267-0.263-0.379
		c-0.117-0.121-0.24-0.209-0.377-0.263c-0.143-0.058-0.29-0.084-0.453-0.084s-0.312,0.026-0.453,0.084
		c-0.137,0.054-0.26,0.142-0.372,0.257c-0.122,0.118-0.21,0.245-0.268,0.383c-0.044,0.103-0.07,0.211-0.087,0.322H214.68z"/>
	<path fill="#FFFFFF" d="M215.508,30.117h2.008v8.699h-8.031v-8.699h2.009c0.007-0.279,0.062-0.537,0.161-0.774
		c0.104-0.235,0.25-0.452,0.445-0.647c0.194-0.194,0.409-0.342,0.643-0.438c0.234-0.098,0.486-0.146,0.759-0.146
		s0.524,0.049,0.759,0.146c0.232,0.099,0.447,0.244,0.643,0.438c0.195,0.195,0.343,0.412,0.445,0.647
		C215.447,29.58,215.501,29.838,215.508,30.117z M216.846,30.786h-6.691v7.36h6.691V30.786z M212.568,29.165
		c-0.133,0.126-0.23,0.269-0.297,0.429c-0.067,0.161-0.104,0.336-0.11,0.523h2.678c-0.007-0.188-0.043-0.362-0.11-0.523
		c-0.065-0.16-0.164-0.303-0.297-0.429c-0.125-0.132-0.268-0.229-0.425-0.293c-0.157-0.062-0.325-0.095-0.507-0.095
		s-0.35,0.033-0.507,0.095C212.836,28.936,212.695,29.033,212.568,29.165z"/>
</g>
<path fill="#FFFFFF" d="M229.5,40c-0.756,0-1.477-0.145-2.139-0.432c-0.663-0.293-1.25-0.69-1.745-1.186
	c-0.494-0.494-0.894-1.082-1.185-1.744C224.145,35.975,224,35.255,224,34.5s0.145-1.475,0.432-2.139
	c0.291-0.663,0.69-1.25,1.186-1.744c0.496-0.495,1.082-0.895,1.742-1.186C228.023,29.145,228.744,29,229.5,29
	s1.477,0.145,2.139,0.432c0.663,0.291,1.25,0.69,1.745,1.187c0.494,0.493,0.894,1.081,1.185,1.743
	c0.287,0.664,0.433,1.385,0.433,2.14s-0.146,1.476-0.431,2.14c-0.293,0.662-0.691,1.25-1.187,1.744s-1.082,0.893-1.743,1.186
	C230.977,39.855,230.256,40,229.5,40z M227.197,38.52c0.332,0.192,0.689,0.344,1.062,0.446c0.405,0.112,0.823,0.17,1.241,0.17
	c0.426,0,0.846-0.058,1.247-0.17c0.368-0.104,0.728-0.254,1.065-0.448c-0.018-0.275-0.084-0.537-0.197-0.781
	c-0.123-0.279-0.29-0.521-0.498-0.723c-0.209-0.203-0.455-0.367-0.732-0.49c-0.271-0.113-0.57-0.172-0.885-0.172
	s-0.613,0.059-0.889,0.174c-0.273,0.121-0.521,0.285-0.729,0.488c-0.208,0.2-0.375,0.442-0.496,0.719
	C227.277,37.977,227.214,38.241,227.197,38.52z M229.5,35.486c0.4,0,0.786,0.07,1.146,0.209c0.355,0.14,0.681,0.332,0.961,0.578
	c0.283,0.246,0.519,0.543,0.701,0.888c0.127,0.246,0.224,0.507,0.285,0.78c0.188-0.17,0.363-0.354,0.521-0.549
	c0.213-0.266,0.396-0.559,0.551-0.871c0.152-0.312,0.271-0.643,0.352-0.981c0.08-0.338,0.119-0.688,0.119-1.04
	c0-0.639-0.123-1.243-0.369-1.8c-0.24-0.562-0.574-1.056-0.992-1.474c-0.418-0.42-0.914-0.752-1.474-0.992
	c-0.558-0.246-1.163-0.369-1.801-0.369s-1.243,0.123-1.799,0.369c-0.562,0.24-1.058,0.572-1.476,0.992
	c-0.418,0.418-0.752,0.912-0.992,1.472c-0.246,0.559-0.369,1.163-0.369,1.802c0,0.354,0.039,0.702,0.119,1.04
	c0.08,0.34,0.199,0.67,0.352,0.981c0.152,0.312,0.338,0.605,0.551,0.871c0.157,0.195,0.332,0.379,0.521,0.549
	c0.062-0.273,0.158-0.534,0.285-0.778c0.184-0.347,0.418-0.644,0.701-0.89c0.28-0.246,0.604-0.438,0.961-0.578
	C228.714,35.559,229.1,35.486,229.5,35.486z M229.5,35.354c-0.283,0-0.541-0.095-0.768-0.279c-0.211-0.18-0.393-0.398-0.541-0.649
	c-0.145-0.247-0.258-0.513-0.338-0.789c-0.082-0.271-0.123-0.515-0.123-0.726c0.023-0.482,0.207-0.889,0.543-1.219
	c0.338-0.33,0.75-0.498,1.227-0.498c0.48,0.017,0.848,0.154,1.158,0.41c0.31,0.258,0.511,0.582,0.595,0.967
	c0.021,0.137,0.024,0.176,0.024,0.205c0,0.022-0.002,0.074-0.01,0.151c0,0.193-0.041,0.438-0.123,0.709
	c-0.069,0.272-0.183,0.539-0.328,0.788c-0.147,0.252-0.332,0.471-0.549,0.649C230.041,35.259,229.783,35.354,229.5,35.354z
	 M229.5,32.059c-0.245,0-0.449,0.082-0.625,0.252c-0.175,0.168-0.264,0.369-0.27,0.614c0,0.304,0.109,0.652,0.326,1.036
	c0.135,0.241,0.344,0.528,0.567,0.528c0.216,0,0.423-0.279,0.56-0.515c0.215-0.375,0.328-0.725,0.334-1.039
	c-0.006-0.244-0.092-0.438-0.261-0.607s-0.362-0.254-0.596-0.262L229.5,31.88V32.059z"/>
<rect x="54.5" y="22.5" fill="#7F7F7F" width="190.5" height="1"/>
<g>
	<g>
		<path fill="#FFFFFF" stroke="#FFFFFF" stroke-width="0.5" stroke-miterlimit="10" d="M217.459,12.271l1.792,1.75L218.77,14.5
			l-1.794-1.906c-0.251,0.197-0.528,0.351-0.828,0.464c-0.301,0.116-0.622,0.171-0.962,0.171c-0.408,0-0.788-0.075-1.143-0.227
			c-0.354-0.146-0.664-0.347-0.932-0.607c-0.267-0.261-0.475-0.562-0.629-0.91c-0.153-0.346-0.231-0.72-0.231-1.12
			s0.075-0.774,0.231-1.121c0.152-0.349,0.363-0.654,0.629-0.912c0.267-0.258,0.576-0.46,0.932-0.605
			c0.354-0.15,0.736-0.226,1.143-0.226c0.4,0,0.779,0.074,1.133,0.226c0.355,0.146,0.665,0.346,0.932,0.605
			c0.268,0.259,0.477,0.561,0.633,0.912c0.154,0.347,0.229,0.72,0.229,1.121c0,0.348-0.056,0.689-0.171,1.028
			C217.825,11.734,217.666,12.026,217.459,12.271z M215.186,12.594c0.308,0,0.602-0.06,0.882-0.179
			c0.274-0.114,0.517-0.271,0.724-0.471c0.206-0.201,0.371-0.438,0.492-0.711c0.117-0.268,0.176-0.559,0.176-0.868
			c0-0.309-0.06-0.602-0.176-0.875c-0.121-0.267-0.286-0.504-0.492-0.704c-0.209-0.198-0.449-0.36-0.724-0.479
			c-0.282-0.116-0.575-0.171-0.882-0.171c-0.312,0-0.609,0.057-0.89,0.171c-0.274,0.118-0.517,0.278-0.725,0.479
			c-0.207,0.201-0.37,0.437-0.486,0.704c-0.122,0.273-0.183,0.566-0.183,0.875c0,0.31,0.062,0.6,0.183,0.868
			c0.116,0.273,0.279,0.511,0.486,0.711c0.208,0.199,0.45,0.357,0.725,0.471C214.575,12.534,214.873,12.594,215.186,12.594z"/>
	</g>
	<rect x="162.001" y="5" fill="none" stroke="#999999" stroke-miterlimit="10" width="60" height="12"/>
</g>
<text transform="matrix(1 0 0 1 228.7637 12.2412)" fill="#404040" font-family="'cleversoft'" font-size="4.9805">쉃</text>
<rect x="65" y="9.833" fill="#404040" width="35" height="2.667"/>
</svg>
