<?xml version="1.0" encoding="utf-8"?>
<!-- Generator: Adobe Illustrator 16.0.0, SVG Export Plug-In . SVG Version: 6.00 Build 0)  -->
<!DOCTYPE svg PUBLIC "-//W3C//DTD SVG 1.1//EN" "http://www.w3.org/Graphics/SVG/1.1/DTD/svg11.dtd">
<svg version="1.1" id="Layer_1" xmlns="http://www.w3.org/2000/svg" xmlns:xlink="http://www.w3.org/1999/xlink" x="0px" y="0px"
	 width="280px" height="50px" viewBox="0 0 280 50" enable-background="new 0 0 280 50" xml:space="preserve">
<g>
	<path d="M31.946,19.227h-1.688c-0.312,0-0.574,0.035-0.785,0.105s-0.371,0.168-0.48,0.293c-0.094,0.125-0.168,0.285-0.223,0.48
		s-0.082,0.426-0.082,0.691v2.039h3.164l-0.422,3.211h-2.742v8.203H25.36v-8.203h-2.742v-3.211h2.742v-2.367
		c0-0.656,0.094-1.246,0.281-1.77s0.469-0.973,0.844-1.348c0.375-0.359,0.812-0.633,1.312-0.82s1.062-0.281,1.688-0.281
		c0.531,0,1.004,0.012,1.418,0.035s0.762,0.059,1.043,0.105V19.227z"/>
	<path d="M92.221,27.711c-0.008,0.672-0.027,1.195-0.059,1.57c-0.031,0.875-0.18,1.652-0.445,2.332s-0.641,1.262-1.125,1.746
		s-1.066,0.859-1.746,1.125s-1.457,0.414-2.332,0.445c-0.375,0.031-0.898,0.051-1.57,0.059S83.451,35,82.482,35
		s-1.789-0.004-2.461-0.012s-1.195-0.027-1.57-0.059c-0.875-0.031-1.652-0.18-2.332-0.445s-1.262-0.641-1.746-1.125
		s-0.859-1.066-1.125-1.746s-0.414-1.457-0.445-2.332c-0.031-0.375-0.051-0.898-0.059-1.57s-0.012-1.492-0.012-2.461
		s0.004-1.789,0.012-2.461s0.027-1.195,0.059-1.57c0.031-0.875,0.18-1.652,0.445-2.332s0.641-1.262,1.125-1.746
		s1.066-0.859,1.746-1.125s1.457-0.414,2.332-0.445c0.375-0.031,0.898-0.051,1.57-0.059s1.492-0.012,2.461-0.012
		s1.789,0.004,2.461,0.012s1.195,0.027,1.57,0.059c0.875,0.031,1.652,0.18,2.332,0.445s1.262,0.641,1.746,1.125
		s0.859,1.066,1.125,1.746s0.414,1.457,0.445,2.332c0.031,0.375,0.051,0.898,0.059,1.57s0.012,1.492,0.012,2.461
		S92.229,27.039,92.221,27.711z M82.775,17.258c-0.164,0-0.262,0-0.293,0s-0.129,0-0.293,0s-0.387-0.008-0.668-0.023
		c-0.297,0-0.559,0-0.785,0s-0.418,0-0.574,0c-0.141,0.016-0.312,0.023-0.516,0.023s-0.438,0.008-0.703,0.023
		c-0.25,0.016-0.484,0.035-0.703,0.059s-0.422,0.051-0.609,0.082c-0.172,0.031-0.336,0.066-0.492,0.105s-0.289,0.082-0.398,0.129
		c-0.219,0.078-0.422,0.18-0.609,0.305s-0.359,0.266-0.516,0.422s-0.297,0.328-0.422,0.516s-0.227,0.391-0.305,0.609
		c-0.047,0.109-0.09,0.242-0.129,0.398s-0.074,0.32-0.105,0.492c-0.047,0.188-0.078,0.391-0.094,0.609s-0.031,0.453-0.047,0.703
		c-0.016,0.266-0.023,0.5-0.023,0.703s-0.008,0.375-0.023,0.516c0,0.156,0,0.348,0,0.574s0,0.488,0,0.785
		c0.016,0.281,0.023,0.504,0.023,0.668s0,0.262,0,0.293s0,0.129,0,0.293s-0.008,0.387-0.023,0.668c0,0.297,0,0.559,0,0.785
		s0,0.418,0,0.574c0.016,0.141,0.023,0.316,0.023,0.527s0.008,0.441,0.023,0.691s0.031,0.484,0.047,0.703s0.047,0.422,0.094,0.609
		c0.031,0.172,0.066,0.336,0.105,0.492s0.082,0.289,0.129,0.398c0.078,0.219,0.18,0.422,0.305,0.609s0.266,0.359,0.422,0.516
		s0.328,0.297,0.516,0.422s0.391,0.234,0.609,0.328c0.109,0.047,0.242,0.09,0.398,0.129s0.32,0.074,0.492,0.105
		c0.188,0.031,0.391,0.055,0.609,0.07s0.453,0.031,0.703,0.047c0.266,0.016,0.5,0.023,0.703,0.023s0.375,0.008,0.516,0.023
		c0.156,0,0.348,0,0.574,0s0.488,0,0.785,0c0.281-0.016,0.504-0.023,0.668-0.023s0.262,0,0.293,0s0.129,0,0.293,0
		s0.387,0.008,0.668,0.023c0.297,0,0.559,0,0.785,0s0.418,0,0.574,0c0.141-0.016,0.312-0.023,0.516-0.023s0.438-0.008,0.703-0.023
		c0.25-0.016,0.484-0.031,0.703-0.047s0.422-0.039,0.609-0.07c0.172-0.031,0.336-0.066,0.492-0.105s0.289-0.082,0.398-0.129
		c0.219-0.094,0.422-0.203,0.609-0.328s0.359-0.266,0.516-0.422s0.297-0.328,0.422-0.516s0.227-0.391,0.305-0.609
		c0.047-0.109,0.09-0.242,0.129-0.398s0.074-0.32,0.105-0.492c0.031-0.188,0.059-0.391,0.082-0.609s0.043-0.453,0.059-0.703
		c0-0.25,0.004-0.48,0.012-0.691s0.02-0.387,0.035-0.527c0-0.156,0-0.348,0-0.574s0-0.488,0-0.785
		c-0.016-0.281-0.023-0.504-0.023-0.668s0-0.262,0-0.293s0-0.129,0-0.293s0.008-0.387,0.023-0.668c0-0.297,0-0.559,0-0.785
		s0-0.418,0-0.574c-0.016-0.141-0.027-0.312-0.035-0.516s-0.012-0.438-0.012-0.703c-0.016-0.25-0.035-0.484-0.059-0.703
		s-0.051-0.422-0.082-0.609c-0.031-0.172-0.066-0.332-0.105-0.48s-0.082-0.285-0.129-0.41c-0.078-0.219-0.18-0.422-0.305-0.609
		s-0.266-0.359-0.422-0.516s-0.328-0.297-0.516-0.422s-0.391-0.227-0.609-0.305c-0.125-0.047-0.262-0.09-0.41-0.129
		s-0.309-0.074-0.48-0.105c-0.188-0.031-0.391-0.059-0.609-0.082s-0.453-0.043-0.703-0.059c-0.266,0-0.5-0.004-0.703-0.012
		s-0.375-0.02-0.516-0.035c-0.156,0-0.348,0-0.574,0s-0.488,0-0.785,0C83.162,17.25,82.939,17.258,82.775,17.258z M86.021,21.711
		c0.484,0.484,0.848,1.023,1.09,1.617s0.363,1.234,0.363,1.922s-0.121,1.328-0.363,1.922s-0.605,1.133-1.09,1.617
		s-1.023,0.848-1.617,1.09s-1.234,0.363-1.922,0.363s-1.328-0.121-1.922-0.363s-1.133-0.605-1.617-1.09s-0.848-1.023-1.09-1.617
		s-0.363-1.234-0.363-1.922s0.121-1.328,0.363-1.922s0.605-1.133,1.09-1.617s1.023-0.848,1.617-1.09s1.234-0.363,1.922-0.363
		s1.328,0.121,1.922,0.363S85.537,21.227,86.021,21.711z M84.779,27.547c0.312-0.312,0.551-0.66,0.715-1.043
		s0.246-0.801,0.246-1.254s-0.082-0.871-0.246-1.254s-0.402-0.73-0.715-1.043s-0.66-0.551-1.043-0.715s-0.801-0.246-1.254-0.246
		s-0.871,0.082-1.254,0.246s-0.73,0.402-1.043,0.715s-0.551,0.66-0.715,1.043s-0.246,0.801-0.246,1.254s0.082,0.871,0.246,1.254
		s0.402,0.73,0.715,1.043s0.66,0.551,1.043,0.715s0.801,0.246,1.254,0.246s0.871-0.082,1.254-0.246S84.467,27.859,84.779,27.547z
		 M88.506,19.227c0.125,0.109,0.215,0.234,0.27,0.375s0.082,0.289,0.082,0.445s-0.027,0.305-0.082,0.445s-0.145,0.266-0.27,0.375
		c-0.109,0.109-0.234,0.195-0.375,0.258s-0.289,0.094-0.445,0.094s-0.305-0.031-0.445-0.094s-0.266-0.148-0.375-0.258
		c-0.125-0.109-0.215-0.234-0.27-0.375s-0.082-0.289-0.082-0.445s0.027-0.305,0.082-0.445s0.145-0.266,0.27-0.375
		c0.109-0.125,0.234-0.215,0.375-0.27s0.289-0.082,0.445-0.082s0.305,0.027,0.445,0.082S88.396,19.102,88.506,19.227z"/>
	<path d="M146.881,20.141c-0.352,0.359-0.73,0.688-1.137,0.984c0,0.047,0.004,0.117,0.012,0.211s0.012,0.203,0.012,0.328
		c0,0.547-0.043,1.102-0.129,1.664s-0.207,1.117-0.363,1.664c-0.172,0.562-0.379,1.109-0.621,1.641s-0.535,1.055-0.879,1.57
		c-0.328,0.516-0.691,0.996-1.09,1.441s-0.824,0.871-1.277,1.277c-0.453,0.391-0.957,0.742-1.512,1.055s-1.16,0.586-1.816,0.82
		c-0.64,0.234-1.308,0.41-2.003,0.527s-1.41,0.176-2.145,0.176c-1.172,0-2.289-0.156-3.352-0.469s-2.078-0.781-3.047-1.406
		c0.141,0.016,0.297,0.027,0.469,0.035s0.352,0.012,0.539,0.012c0.953,0,1.863-0.148,2.73-0.445s1.676-0.742,2.426-1.336
		c-0.453,0-0.879-0.07-1.277-0.211s-0.777-0.344-1.137-0.609s-0.66-0.57-0.902-0.914s-0.434-0.727-0.574-1.148
		c0.141,0.031,0.277,0.051,0.41,0.059s0.262,0.012,0.387,0.012c0.172,0,0.352-0.012,0.539-0.035s0.367-0.059,0.539-0.105
		c-0.484-0.094-0.922-0.262-1.312-0.504s-0.75-0.551-1.078-0.926c-0.312-0.391-0.547-0.805-0.703-1.242s-0.234-0.906-0.234-1.406
		v-0.047c0.297,0.156,0.602,0.277,0.914,0.363s0.633,0.137,0.961,0.152c-0.281-0.188-0.535-0.406-0.762-0.656
		s-0.418-0.523-0.574-0.82c-0.172-0.312-0.301-0.633-0.387-0.961s-0.129-0.672-0.129-1.031c0-0.375,0.047-0.738,0.141-1.09
		s0.234-0.684,0.422-0.996c0.516,0.641,1.09,1.215,1.723,1.723s1.324,0.957,2.074,1.348c0.75,0.375,1.523,0.672,2.32,0.891
		s1.617,0.344,2.461,0.375c-0.031-0.156-0.055-0.312-0.07-0.469s-0.023-0.312-0.023-0.469c0-0.578,0.102-1.113,0.305-1.605
		s0.507-0.941,0.914-1.348s0.855-0.711,1.348-0.914S141.018,17,141.596,17c0.594,0,1.145,0.109,1.652,0.328s0.965,0.547,1.371,0.984
		c0.469-0.094,0.926-0.223,1.371-0.387s0.871-0.371,1.277-0.621c-0.156,0.5-0.387,0.941-0.691,1.324s-0.684,0.707-1.137,0.973
		c0.391-0.031,0.789-0.102,1.195-0.211s0.805-0.25,1.195-0.422C147.549,19.391,147.232,19.781,146.881,20.141z"/>
	<path d="M202.305,22.695c0.219,0.812,0.328,1.664,0.328,2.555s-0.109,1.742-0.328,2.555s-0.547,1.594-0.984,2.344
		s-0.949,1.418-1.535,2.004s-1.254,1.098-2.004,1.535s-1.531,0.766-2.344,0.984S193.773,35,192.883,35
		c-0.469,0-0.934-0.035-1.395-0.105s-0.918-0.168-1.371-0.293c0.25-0.406,0.457-0.781,0.621-1.125s0.285-0.664,0.363-0.961
		c0.047-0.141,0.125-0.438,0.234-0.891s0.258-1.047,0.445-1.781c0.094,0.156,0.219,0.305,0.375,0.445s0.344,0.273,0.562,0.398
		s0.449,0.215,0.691,0.27s0.496,0.082,0.762,0.082c0.5,0,0.98-0.07,1.441-0.211s0.895-0.359,1.301-0.656
		c0.391-0.281,0.742-0.621,1.055-1.02s0.578-0.855,0.797-1.371c0.219-0.5,0.383-1.035,0.492-1.605s0.164-1.176,0.164-1.816
		c0-0.484-0.062-0.953-0.188-1.406s-0.312-0.891-0.562-1.312s-0.559-0.805-0.926-1.148s-0.785-0.648-1.254-0.914
		c-0.484-0.266-0.996-0.465-1.535-0.598s-1.105-0.199-1.699-0.199c-0.453,0-0.887,0.031-1.301,0.094s-0.809,0.148-1.184,0.258
		c-0.391,0.125-0.75,0.27-1.078,0.434s-0.625,0.348-0.891,0.551s-0.516,0.422-0.75,0.656s-0.445,0.484-0.633,0.75
		s-0.355,0.535-0.504,0.809s-0.262,0.551-0.34,0.832c-0.094,0.281-0.164,0.566-0.211,0.855s-0.07,0.574-0.07,0.855
		c0,0.438,0.043,0.848,0.129,1.23s0.215,0.746,0.387,1.09c0.156,0.328,0.359,0.609,0.609,0.844s0.539,0.422,0.867,0.562
		c0.125,0.047,0.227,0.051,0.305,0.012s0.133-0.129,0.164-0.27c0.016-0.031,0.031-0.078,0.047-0.141s0.039-0.148,0.07-0.258
		c0.031-0.094,0.055-0.172,0.07-0.234s0.023-0.109,0.023-0.141c0.031-0.094,0.035-0.188,0.012-0.281s-0.074-0.18-0.152-0.258
		c-0.219-0.266-0.379-0.559-0.48-0.879s-0.152-0.668-0.152-1.043c0-0.641,0.109-1.234,0.328-1.781s0.547-1.055,0.984-1.523
		c0.438-0.453,0.949-0.793,1.535-1.02s1.23-0.34,1.934-0.34c0.641,0,1.211,0.086,1.711,0.258s0.93,0.43,1.289,0.773
		s0.629,0.742,0.809,1.195s0.27,0.953,0.27,1.5c0,0.719-0.074,1.387-0.223,2.004s-0.371,1.176-0.668,1.676
		c-0.281,0.5-0.609,0.875-0.984,1.125s-0.789,0.375-1.242,0.375c-0.25,0-0.48-0.043-0.691-0.129s-0.395-0.223-0.551-0.41
		s-0.258-0.391-0.305-0.609s-0.039-0.461,0.023-0.727c0.031-0.141,0.074-0.309,0.129-0.504s0.121-0.418,0.199-0.668
		s0.148-0.484,0.211-0.703s0.125-0.422,0.188-0.609c0.047-0.188,0.082-0.363,0.105-0.527s0.035-0.309,0.035-0.434
		c0-0.219-0.031-0.414-0.094-0.586s-0.148-0.328-0.258-0.469s-0.246-0.246-0.41-0.316s-0.355-0.105-0.574-0.105
		c-0.25,0-0.488,0.062-0.715,0.188s-0.426,0.305-0.598,0.539c-0.188,0.234-0.328,0.504-0.422,0.809s-0.141,0.637-0.141,0.996
		c0,0.312,0.027,0.598,0.082,0.855s0.137,0.488,0.246,0.691l-1.266,5.297c-0.062,0.297-0.109,0.633-0.141,1.008
		s-0.039,0.789-0.023,1.242c-0.875-0.375-1.664-0.859-2.367-1.453s-1.32-1.297-1.852-2.109c-0.547-0.797-0.953-1.645-1.219-2.543
		s-0.398-1.84-0.398-2.824c0-0.891,0.109-1.742,0.328-2.555s0.547-1.594,0.984-2.344s0.949-1.418,1.535-2.004
		s1.254-1.098,2.004-1.535s1.531-0.766,2.344-0.984s1.664-0.328,2.555-0.328s1.742,0.109,2.555,0.328s1.594,0.547,2.344,0.984
		s1.418,0.949,2.004,1.535s1.098,1.254,1.535,2.004S202.086,21.883,202.305,22.695z"/>
	<path d="M256.273,33.008c-0.039,0.094-0.098,0.18-0.176,0.258c-0.062,0.078-0.141,0.137-0.234,0.176s-0.195,0.059-0.305,0.059
		h-1.664c-0.109,0-0.207-0.02-0.293-0.059s-0.16-0.09-0.223-0.152c-0.078-0.078-0.137-0.156-0.176-0.234s-0.059-0.164-0.059-0.258
		c-0.047-0.844-0.168-1.664-0.363-2.461s-0.473-1.57-0.832-2.32c-0.344-0.766-0.742-1.477-1.195-2.133s-0.953-1.258-1.5-1.805
		c-0.562-0.562-1.172-1.07-1.828-1.523s-1.359-0.852-2.109-1.195s-1.523-0.613-2.32-0.809s-1.617-0.324-2.461-0.387
		c-0.094,0-0.184-0.02-0.27-0.059s-0.16-0.09-0.223-0.152c-0.062-0.078-0.113-0.16-0.152-0.246s-0.059-0.176-0.059-0.27V17.75
		c0-0.109,0.02-0.207,0.059-0.293s0.098-0.168,0.176-0.246c0.078-0.062,0.16-0.113,0.246-0.152S240.488,17,240.582,17h0.047
		c1.016,0.062,2.012,0.211,2.988,0.445s1.934,0.555,2.871,0.961c0.938,0.422,1.82,0.922,2.648,1.5s1.602,1.227,2.32,1.945
		c0.734,0.734,1.391,1.516,1.969,2.344s1.07,1.711,1.477,2.648c0.422,0.922,0.75,1.875,0.984,2.859s0.375,1.984,0.422,3
		C256.324,32.812,256.312,32.914,256.273,33.008z M250.285,32.984c-0.031,0.094-0.086,0.18-0.164,0.258
		c-0.062,0.078-0.141,0.141-0.234,0.188s-0.195,0.07-0.305,0.07h-1.594c-0.094,0-0.184-0.02-0.27-0.059s-0.16-0.09-0.223-0.152
		c-0.078-0.062-0.137-0.133-0.176-0.211s-0.059-0.164-0.059-0.258c-0.094-0.891-0.32-1.719-0.68-2.484s-0.852-1.469-1.477-2.109
		c-0.641-0.625-1.344-1.121-2.109-1.488s-1.594-0.59-2.484-0.668c-0.094-0.016-0.184-0.043-0.27-0.082s-0.16-0.09-0.223-0.152
		c-0.062-0.078-0.109-0.156-0.141-0.234s-0.047-0.164-0.047-0.258V23.75c0-0.109,0.02-0.211,0.059-0.305s0.105-0.172,0.199-0.234
		c0.062-0.078,0.137-0.133,0.223-0.164S240.488,23,240.582,23h0.07c0.609,0.047,1.215,0.152,1.816,0.316s1.184,0.371,1.746,0.621
		c0.578,0.266,1.117,0.578,1.617,0.938s0.977,0.758,1.43,1.195c0.438,0.438,0.832,0.91,1.184,1.418s0.66,1.043,0.926,1.605
		c0.266,0.578,0.477,1.164,0.633,1.758s0.258,1.203,0.305,1.828C250.324,32.789,250.316,32.891,250.285,32.984z M243.676,29.656
		c0.219,0.219,0.383,0.461,0.492,0.727s0.164,0.555,0.164,0.867s-0.055,0.602-0.164,0.867s-0.273,0.508-0.492,0.727
		s-0.461,0.383-0.727,0.492s-0.555,0.164-0.867,0.164s-0.602-0.055-0.867-0.164s-0.508-0.273-0.727-0.492s-0.383-0.461-0.492-0.727
		s-0.164-0.555-0.164-0.867s0.055-0.602,0.164-0.867s0.273-0.508,0.492-0.727s0.461-0.383,0.727-0.492S241.77,29,242.082,29
		s0.602,0.055,0.867,0.164S243.457,29.438,243.676,29.656z"/>
</g>
<g>
	<circle fill="none" stroke="#000000" stroke-width="2" stroke-miterlimit="10" cx="27.543" cy="25.108" r="20"/>
	<circle fill="none" stroke="#000000" stroke-width="2" stroke-miterlimit="10" cx="82.543" cy="25.108" r="20"/>
	<circle fill="none" stroke="#000000" stroke-width="2" stroke-miterlimit="10" cx="137.543" cy="25.108" r="20"/>
	<circle fill="none" stroke="#000000" stroke-width="2" stroke-miterlimit="10" cx="192.543" cy="25.108" r="20"/>
	<circle fill="none" stroke="#000000" stroke-width="2" stroke-miterlimit="10" cx="246.543" cy="25.108" r="20"/>
</g>
</svg>
