<?xml version="1.0" encoding="utf-8"?>
<!-- Generator: Adobe Illustrator 16.0.0, SVG Export Plug-In . SVG Version: 6.00 Build 0)  -->
<!DOCTYPE svg PUBLIC "-//W3C//DTD SVG 1.1//EN" "http://www.w3.org/Graphics/SVG/1.1/DTD/svg11.dtd">
<svg version="1.1" id="Layer_1" xmlns="http://www.w3.org/2000/svg" xmlns:xlink="http://www.w3.org/1999/xlink" x="0px" y="0px"
	 width="280px" height="160px" viewBox="0 0 280 160" enable-background="new 0 0 280 160" xml:space="preserve">
<g>
	<path fill="#DAEDF2" d="M278,2v156H2V2H278 M280,0H0v160h280V0L280,0z"/>
</g>
<g>
	<linearGradient id="SVGID_1_" gradientUnits="userSpaceOnUse" x1="52.5361" y1="16.2988" x2="102.5615" y2="143.9496">
		<stop  offset="0" style="stop-color:#FDFFFF"/>
		<stop  offset="1" style="stop-color:#E8F9FF"/>
	</linearGradient>
	<rect x="21.5" y="21.5" fill="url(#SVGID_1_)" width="112" height="117"/>
	<path fill="#1AA1D0" d="M132,23v114H23V23H132 M135,20H20v120h115V20L135,20z"/>
</g>
<g>
	<linearGradient id="SVGID_2_" gradientUnits="userSpaceOnUse" x1="187.6221" y1="9.5342" x2="217.437" y2="85.6137">
		<stop  offset="0" style="stop-color:#FDFFFF"/>
		<stop  offset="1" style="stop-color:#E8F9FF"/>
	</linearGradient>
	<rect x="146.5" y="21.5" fill="url(#SVGID_2_)" width="112" height="52"/>
	<path fill="#1AA1D0" d="M257,23v49H148V23H257 M260,20H145v55h115V20L260,20z"/>
</g>
<g>
	<linearGradient id="SVGID_3_" gradientUnits="userSpaceOnUse" x1="187.3721" y1="74.5342" x2="217.187" y2="150.6137">
		<stop  offset="0" style="stop-color:#FDFFFF"/>
		<stop  offset="1" style="stop-color:#E8F9FF"/>
	</linearGradient>
	<rect x="146.25" y="86.5" fill="url(#SVGID_3_)" width="112" height="52"/>
	<path fill="#1AA1D0" d="M256.75,88v49h-109V88H256.75 M259.75,85h-115v55h115V85L259.75,85z"/>
</g>
</svg>
