<?xml version="1.0" encoding="utf-8"?>
<!-- Generator: Adobe Illustrator 16.0.0, SVG Export Plug-In . SVG Version: 6.00 Build 0)  -->
<!DOCTYPE svg PUBLIC "-//W3C//DTD SVG 1.1//EN" "http://www.w3.org/Graphics/SVG/1.1/DTD/svg11.dtd">
<svg version="1.1" id="Layer_1" xmlns="http://www.w3.org/2000/svg" xmlns:xlink="http://www.w3.org/1999/xlink" x="0px" y="0px"
	 width="280px" height="160px" viewBox="0 0 280 160" enable-background="new 0 0 280 160" xml:space="preserve">
<g>
	<path fill="#DAEDF2" d="M278,2v156H2V2H278 M280,0H0v160h280V0L280,0z"/>
</g>
<g>
	<linearGradient id="SVGID_1_" gradientUnits="userSpaceOnUse" x1="52.752" y1="16.9336" x2="102.3445" y2="143.4801">
		<stop  offset="0" style="stop-color:#FDFFFF"/>
		<stop  offset="1" style="stop-color:#E8F9FF"/>
	</linearGradient>
	<rect x="22" y="22.083" fill="url(#SVGID_1_)" width="111" height="116"/>
	<path fill="#1AA1D0" d="M131,24.083v112H24v-112H131 M135,20.083H20v120h115V20.083L135,20.083z"/>
</g>
<g>
	<linearGradient id="SVGID_2_" gradientUnits="userSpaceOnUse" x1="177.7529" y1="16.9336" x2="227.3455" y2="143.4801">
		<stop  offset="0" style="stop-color:#FDFFFF"/>
		<stop  offset="1" style="stop-color:#E8F9FF"/>
	</linearGradient>
	<rect x="147" y="22.083" fill="url(#SVGID_2_)" width="111" height="116"/>
	<path fill="#1AA1D0" d="M256,24.083v112H149v-112H256 M260,20.083H145v120h115V20.083L260,20.083z"/>
</g>
</svg>
