<?xml version="1.0" encoding="utf-8"?>
<!-- Generator: Adobe Illustrator 16.0.0, SVG Export Plug-In . SVG Version: 6.00 Build 0)  -->
<!DOCTYPE svg PUBLIC "-//W3C//DTD SVG 1.1//EN" "http://www.w3.org/Graphics/SVG/1.1/DTD/svg11.dtd">
<svg version="1.1" id="Layer_1" xmlns="http://www.w3.org/2000/svg" xmlns:xlink="http://www.w3.org/1999/xlink" x="0px" y="0px"
	 width="280px" height="160px" viewBox="0 0 280 160" enable-background="new 0 0 280 160" xml:space="preserve">
<g>
	<linearGradient id="SVGID_1_" gradientUnits="userSpaceOnUse" x1="38.416" y1="95.3721" x2="116.9151" y2="9.2618">
		<stop  offset="0" style="stop-color:#FDFFFF"/>
		<stop  offset="0.5474" style="stop-color:#F4FCFF"/>
		<stop  offset="1" style="stop-color:#E8F9FF"/>
	</linearGradient>
	<rect x="21.5" y="21.5" fill="url(#SVGID_1_)" width="112" height="62"/>
	<path fill="#1AA1D0" d="M132,23v59H23V23H132 M135,20H20v65h115V20L135,20z"/>
</g>
<g>
	<path fill="#DAEDF2" d="M278,2v156H2V2H278 M280,0H0v160h280V0L280,0z"/>
</g>
<g>
	<linearGradient id="SVGID_2_" gradientUnits="userSpaceOnUse" x1="43.1802" y1="155.1475" x2="112.1123" y2="79.5318">
		<stop  offset="0" style="stop-color:#FDFFFF"/>
		<stop  offset="0.5474" style="stop-color:#F4FCFF"/>
		<stop  offset="1" style="stop-color:#E8F9FF"/>
	</linearGradient>
	<rect x="21.5" y="96.5" fill="url(#SVGID_2_)" width="112" height="42"/>
	<path fill="#1AA1D0" d="M132,98v39H23V98H132 M135,95H20v45h115V95L135,95z"/>
</g>
<g>
	<linearGradient id="SVGID_3_" gradientUnits="userSpaceOnUse" x1="163.416" y1="150.373" x2="241.9154" y2="64.2625">
		<stop  offset="0" style="stop-color:#FDFFFF"/>
		<stop  offset="0.5474" style="stop-color:#F4FCFF"/>
		<stop  offset="1" style="stop-color:#E8F9FF"/>
	</linearGradient>
	<rect x="146.5" y="76.5" fill="url(#SVGID_3_)" width="112" height="62"/>
	<path fill="#1AA1D0" d="M257,78v59H148V78H257 M260,75H145v65h115V75L260,75z"/>
</g>
<g>
	<linearGradient id="SVGID_4_" gradientUnits="userSpaceOnUse" x1="168.1797" y1="80.1479" x2="237.1118" y2="4.5322">
		<stop  offset="0" style="stop-color:#FDFFFF"/>
		<stop  offset="0.5474" style="stop-color:#F4FCFF"/>
		<stop  offset="1" style="stop-color:#E8F9FF"/>
	</linearGradient>
	<rect x="146.5" y="21.5" fill="url(#SVGID_4_)" width="112" height="42"/>
	<path fill="#1AA1D0" d="M257,23v39H148V23H257 M260,20H145v45h115V20L260,20z"/>
</g>
</svg>
