<?xml version="1.0" encoding="utf-8"?>
<!-- Generator: Adobe Illustrator 16.0.0, SVG Export Plug-In . SVG Version: 6.00 Build 0)  -->
<!DOCTYPE svg PUBLIC "-//W3C//DTD SVG 1.1//EN" "http://www.w3.org/Graphics/SVG/1.1/DTD/svg11.dtd">
<svg version="1.1" id="Layer_1" xmlns="http://www.w3.org/2000/svg" xmlns:xlink="http://www.w3.org/1999/xlink" x="0px" y="0px"
	 width="280px" height="160px" viewBox="0 0 280 160" enable-background="new 0 0 280 160" xml:space="preserve">
<g>
	<linearGradient id="SVGID_1_" gradientUnits="userSpaceOnUse" x1="13.4365" y1="127.2393" x2="99.9303" y2="32.359">
		<stop  offset="0" style="stop-color:#FDFFFF"/>
		<stop  offset="0.5474" style="stop-color:#F4FCFF"/>
		<stop  offset="1" style="stop-color:#E8F9FF"/>
	</linearGradient>
	<rect x="21.5" y="21.5" fill="url(#SVGID_1_)" width="70" height="117"/>
	<path fill="#1AA1D0" d="M90,23v114H23V23H90 M93,20H20v120h73V20L93,20z"/>
</g>
<g>
	<path fill="#DAEDF2" d="M278,2v156H2V2H278 M280,0H0v160h280V0L280,0z"/>
</g>
<g>
	<linearGradient id="SVGID_2_" gradientUnits="userSpaceOnUse" x1="96.9365" y1="127.2393" x2="183.43" y2="32.3593">
		<stop  offset="0" style="stop-color:#FDFFFF"/>
		<stop  offset="0.5474" style="stop-color:#F4FCFF"/>
		<stop  offset="1" style="stop-color:#E8F9FF"/>
	</linearGradient>
	<rect x="105" y="21.5" fill="url(#SVGID_2_)" width="70" height="117"/>
	<path fill="#1AA1D0" d="M173.5,23v114h-67V23H173.5 M176.5,20h-73v120h73V20L176.5,20z"/>
</g>
<g>
	<linearGradient id="SVGID_3_" gradientUnits="userSpaceOnUse" x1="180.4365" y1="127.2383" x2="266.93" y2="32.3584">
		<stop  offset="0" style="stop-color:#FDFFFF"/>
		<stop  offset="0.5474" style="stop-color:#F4FCFF"/>
		<stop  offset="1" style="stop-color:#E8F9FF"/>
	</linearGradient>
	<rect x="188.5" y="21.5" fill="url(#SVGID_3_)" width="70" height="117"/>
	<path fill="#1AA1D0" d="M257,23v114h-67V23H257 M260,20h-73v120h73V20L260,20z"/>
</g>
</svg>
