<?xml version="1.0" encoding="utf-8"?>
<!-- Generator: Adobe Illustrator 16.0.0, SVG Export Plug-In . SVG Version: 6.00 Build 0)  -->
<!DOCTYPE svg PUBLIC "-//W3C//DTD SVG 1.1//EN" "http://www.w3.org/Graphics/SVG/1.1/DTD/svg11.dtd">
<svg version="1.1" id="Layer_1" xmlns="http://www.w3.org/2000/svg" xmlns:xlink="http://www.w3.org/1999/xlink" x="0px" y="0px"
	 width="280px" height="160px" viewBox="0 0 280 160" enable-background="new 0 0 280 160" xml:space="preserve">
<g>
	<path fill="#DAEDF2" d="M278,2v156H2V2H278 M280,0H0v160h280V0L280,0z"/>
</g>
<g>
	<linearGradient id="SVGID_1_" gradientUnits="userSpaceOnUse" x1="25.3027" y1="26.6309" x2="67.2797" y2="133.7445">
		<stop  offset="0" style="stop-color:#FDFFFF"/>
		<stop  offset="1" style="stop-color:#E8F9FF"/>
	</linearGradient>
	<rect x="22" y="22.083" fill="url(#SVGID_1_)" width="48.5" height="116"/>
	<path fill="#1AA1D0" d="M68.5,24.083v112H24v-112H68.5 M72.5,20.083H20v120h52.5V20.083L72.5,20.083z"/>
</g>
<g>
	<linearGradient id="SVGID_2_" gradientUnits="userSpaceOnUse" x1="150.4121" y1="26.6309" x2="192.3891" y2="133.7445">
		<stop  offset="0" style="stop-color:#FDFFFF"/>
		<stop  offset="1" style="stop-color:#E8F9FF"/>
	</linearGradient>
	<rect x="147.11" y="22.083" fill="url(#SVGID_2_)" width="48.5" height="116"/>
	<path fill="#1AA1D0" d="M193.61,24.083v112h-44.5v-112H193.61 M197.61,20.083h-52.5v120h52.5V20.083L197.61,20.083z"/>
</g>
<g>
	<linearGradient id="SVGID_3_" gradientUnits="userSpaceOnUse" x1="87.8574" y1="26.6299" x2="129.8347" y2="133.7444">
		<stop  offset="0" style="stop-color:#FDFFFF"/>
		<stop  offset="1" style="stop-color:#E8F9FF"/>
	</linearGradient>
	<rect x="84.555" y="22.083" fill="url(#SVGID_3_)" width="48.5" height="116"/>
	<path fill="#1AA1D0" d="M131.055,24.083v112h-44.5v-112H131.055 M135.055,20.083h-52.5v120h52.5V20.083L135.055,20.083z"/>
</g>
<g>
	<linearGradient id="SVGID_4_" gradientUnits="userSpaceOnUse" x1="212.9688" y1="26.6313" x2="254.9457" y2="133.745">
		<stop  offset="0" style="stop-color:#FDFFFF"/>
		<stop  offset="1" style="stop-color:#E8F9FF"/>
	</linearGradient>
	<rect x="209.666" y="22.083" fill="url(#SVGID_4_)" width="48.5" height="116"/>
	<path fill="#1AA1D0" d="M256.166,24.083v112h-44.5v-112H256.166 M260.166,20.083h-52.5v120h52.5V20.083L260.166,20.083z"/>
</g>
</svg>
