<?xml version="1.0" encoding="utf-8"?>
<!-- Generator: Adobe Illustrator 16.0.0, SVG Export Plug-In . SVG Version: 6.00 Build 0)  -->
<!DOCTYPE svg PUBLIC "-//W3C//DTD SVG 1.1//EN" "http://www.w3.org/Graphics/SVG/1.1/DTD/svg11.dtd">
<svg version="1.1" id="Layer_1" xmlns="http://www.w3.org/2000/svg" xmlns:xlink="http://www.w3.org/1999/xlink" x="0px" y="0px"
	 width="200px" height="200px" viewBox="0 0 200 200" enable-background="new 0 0 200 200" xml:space="preserve">
<g>
	<g>
		<circle fill="#FF6700" cx="14.913" cy="99.947" r="12.997"/>
	</g>
	<path fill="#FF6700" d="M86.539,198.02c-27.05-3.8-49.261-15.489-66.31-35.699c-0.01-0.011-0.02-0.021-0.03-0.03
		c-1.63-1.94-3.22-3.96-4.76-6.06c-0.01-0.021-0.02-0.03-0.03-0.04c-0.38-0.54-0.75-1.08-1.11-1.62
		c-0.01-0.011-0.02-0.011-0.02-0.021c-3.06-4.46-5.62-8.859-6.89-11.12c-0.01-0.02-0.02-0.029-0.03-0.05
		c-0.35-0.62-0.6-1.07-0.74-1.32c-0.02-0.029-0.04-0.06-0.05-0.09c-0.01-0.029-0.03-0.05-0.04-0.069c0-0.03-0.01-0.04-0.01-0.04
		c-0.9-1.851-1.4-3.92-1.4-6.11c0-7.8,6.33-14.13,14.13-14.13c1.62,0,3.17,0.27,4.62,0.78c2.38,0.819,4.479,2.27,6.09,4.14
		c0.12,0.14,0.24,0.28,0.351,0.42c0.09,0.11,0.18,0.22,0.26,0.34c0.14,0.181,0.27,0.36,0.4,0.55c1.43,1.98,2.59,4.2,3.799,6.341
		c19.541,34.31,61.33,47.43,96.721,30.04c4.54-2.24,8.93-5.66,12.14-9.561c5.05-6.15,4.24-14.62-0.86-20.229
		c-5.479-6-12.02-6.21-18.55-2.29c-6.33,3.819-12.91,6.31-19.77,7.06c-2.09,0.35-4.23,0.521-6.431,0.521
		c-22.039,0-39.899-17.881-39.899-39.92c0-22.04,17.86-39.9,39.899-39.9c5.031,0,9.851,0.92,14.281,2.64
		c1.94,0.62,3.891,1.36,5.84,2.21c1.91,0.83,3.641,2.09,5.5,3.05c8.521,4.37,15.25,3.17,20.23-3.59c4.96-6.72,4.1-15.91-2.74-22.02
		c-9.34-8.34-20.95-11.6-33.05-13.25c-3.12-0.43-6.29-0.36-10.721-0.6C71.378,29.2,50.369,40.87,35.949,64.14
		c-1.37,2.23-2.55,4.59-4.05,6.75c-4.94,7.15-12.38,9.29-19.041,5.56c-6.32-3.52-9.13-10.89-5.03-18.44
		c4.95-9.13,10.32-18.6,17.6-25.8c28.39-28.04,62.7-37.73,101.19-26.85c37.899,10.72,60.86,36.69,69.21,75.17
		C210.229,146.84,153.539,207.48,86.539,198.02z"/>
</g>
</svg>
